<?xml version="1.0" standalone="no"?>
<!DOCTYPE svg PUBLIC "-//W3C//DTD SVG 20010904//EN"
 "http://www.w3.org/TR/2001/REC-SVG-20010904/DTD/svg10.dtd">
<svg version="1.0" xmlns="http://www.w3.org/2000/svg"
 width="406.000000pt" height="406.000000pt" viewBox="0 0 406.000000 406.000000"
 preserveAspectRatio="xMidYMid meet">
<metadata>
Created by potrace 1.11, written by Peter Selinger 2001-2013
</metadata>
<g transform="translate(0.000000,406.000000) scale(0.100000,-0.100000)"
fill="#000000" stroke="none">
<path d="M1072 3000 c-4 -3 -8 -16 -10 -29 -2 -20 0 -22 13 -11 10 9 15 9 15
1 0 -6 -4 -11 -8 -11 -4 0 -8 -9 -9 -20 -2 -27 3 -25 24 6 16 25 16 27 -1 40
-18 12 -18 13 0 12 11 0 28 3 39 7 16 5 17 5 5 -4 -8 -5 -11 -13 -7 -17 4 -4
12 -3 18 3 6 6 18 9 27 6 10 -4 13 -2 8 5 -5 8 -2 10 8 6 9 -3 16 -2 16 3 0
10 -126 12 -138 3z"/>
<path d="M1215 2994 c-6 -10 -20 -18 -31 -18 -10 -1 -25 -5 -32 -10 -7 -4 -20
-2 -29 6 -10 8 -14 8 -10 1 9 -14 -12 -63 -27 -64 -6 -1 -17 -1 -25 0 -7 2
-10 -2 -6 -8 12 -20 59 -39 88 -36 19 2 35 -4 51 -20 17 -17 31 -22 58 -19 42
5 59 -20 32 -45 -11 -11 -14 -11 -9 -2 5 9 3 12 -5 9 -8 -2 -14 -19 -15 -37
-1 -18 -6 -36 -11 -39 -5 -4 -10 -16 -12 -27 -2 -18 0 -17 18 5 11 14 25 31
30 38 8 8 8 12 0 12 -5 0 -10 5 -10 11 0 5 4 8 9 5 5 -4 11 -3 14 1 2 5 2 2 0
-5 -1 -8 2 -12 9 -10 18 6 10 110 -10 130 -9 9 -16 8 -30 -6 -16 -17 -16 -18
6 -11 12 3 22 2 22 -3 0 -4 -19 -8 -42 -7 -26 1 -42 5 -41 12 2 7 -7 15 -18
18 -15 5 -17 10 -9 20 8 10 5 13 -15 13 -18 0 -23 -4 -16 -12 7 -9 3 -11 -17
-10 -42 2 -44 3 -36 15 4 8 9 7 15 -2 8 -11 11 -11 20 3 7 13 18 16 42 12 50
-8 70 -6 79 8 6 9 8 7 6 -7 -2 -12 4 -21 15 -23 9 -2 17 2 17 8 0 6 -4 9 -8 6
-5 -3 -8 12 -7 32 0 20 -3 46 -8 56 -9 19 -10 19 -23 1 -8 -10 -14 -24 -14
-29 0 -6 7 -3 14 7 13 17 14 16 12 -7 -1 -19 -4 -22 -18 -15 -22 12 -25 12
-25 -6 0 -10 6 -14 16 -10 12 5 13 3 5 -5 -8 -8 -18 -9 -30 -3 -19 9 -45 9
-74 1 -8 -3 -12 -3 -7 -1 4 3 5 8 2 13 -3 4 15 7 40 5 40 -2 44 -1 33 13 -8 9
-8 13 -2 9 13 -8 38 17 32 33 -1 5 -8 3 -13 -6z"/>
<path d="M1905 3003 c-104 -20 -164 -36 -159 -44 3 -5 -1 -6 -9 -3 -7 2 -27
-1 -43 -7 -16 -7 -34 -13 -40 -14 -5 -2 -29 -12 -51 -23 -26 -12 -40 -15 -37
-7 5 11 -39 31 -58 27 -5 -1 -8 3 -8 10 0 6 -3 8 -7 5 -3 -4 -12 -2 -19 4 -7
6 -29 11 -48 12 -20 1 -38 7 -40 12 -2 6 -17 11 -32 10 -16 0 -32 4 -36 10 -5
6 -8 5 -8 -4 0 -10 -3 -11 -14 -2 -11 10 -14 5 -12 -26 0 -21 5 -44 9 -50 5
-7 6 -17 2 -22 -3 -6 4 -9 15 -8 11 1 20 2 20 3 0 13 -14 33 -20 29 -4 -3 -10
2 -13 10 -4 9 -1 12 8 9 11 -4 13 1 9 23 -4 24 -3 26 8 12 7 -9 22 -21 33 -27
11 -6 14 -12 8 -12 -7 0 -13 -5 -13 -11 0 -5 5 -7 10 -4 6 3 10 1 10 -5 0 -7
-6 -10 -12 -7 -7 2 -12 12 -12 21 2 17 -11 22 -20 8 -7 -12 24 -53 35 -47 5 4
9 1 9 -4 0 -6 -4 -11 -10 -11 -14 0 -12 -26 3 -38 10 -9 19 -8 34 3 18 13 22
13 26 0 4 -9 1 -12 -8 -9 -10 4 -13 0 -11 -13 2 -10 -2 -24 -10 -31 -17 -15
-18 -8 -4 19 14 25 5 24 -21 -2 -16 -16 -18 -23 -9 -29 8 -5 8 -10 2 -14 -12
-7 -23 19 -16 37 3 8 -2 19 -10 26 -14 11 -14 15 0 36 15 22 14 24 -5 22 -17
-1 -19 -6 -15 -32 3 -16 7 -41 9 -55 11 -66 11 -65 -12 -63 -25 3 -60 -38 -48
-56 4 -7 -1 -8 -12 -4 -15 5 -16 3 -5 -8 6 -7 12 -17 12 -21 0 -4 -16 9 -35
30 -19 20 -35 32 -35 26 0 -6 11 -21 24 -33 15 -14 22 -29 19 -40 -9 -22 -53
-75 -53 -62 0 5 6 16 13 23 8 7 19 23 25 35 11 19 10 22 -8 20 -15 -1 -19 -6
-15 -22 5 -18 5 -18 -5 -2 -12 19 -4 41 11 32 13 -9 11 9 -3 23 -14 14 -32 16
-23 2 3 -5 1 -18 -5 -29 -7 -14 -7 -22 1 -26 6 -4 7 -14 4 -24 -4 -9 -8 -25
-9 -36 -1 -14 -9 -20 -28 -22 -16 -1 -28 2 -28 8 0 5 -5 9 -11 9 -5 0 -7 -4
-4 -10 3 -5 1 -10 -5 -10 -7 0 -10 6 -7 13 2 6 12 11 21 11 16 -2 21 8 9 19
-3 4 -17 0 -30 -8 -13 -9 -23 -12 -23 -7 0 5 11 14 25 20 14 6 25 16 25 22 0
6 4 9 9 6 5 -3 9 6 9 19 0 19 -4 23 -13 15 -9 -8 -14 -6 -19 5 -6 17 -32 20
-41 5 -8 -12 12 -40 28 -40 7 0 7 4 -1 12 -7 7 -12 17 -12 22 0 6 7 3 15 -7
19 -26 9 -53 -13 -35 -13 11 -15 10 -9 -4 4 -13 2 -15 -10 -11 -12 5 -14 3 -8
-8 5 -8 -2 -5 -14 6 -23 20 -71 29 -71 13 0 -4 6 -9 13 -9 6 -1 17 -2 23 -3 6
0 27 -14 45 -29 24 -20 28 -28 15 -25 -10 2 -21 -2 -23 -9 -3 -7 5 -10 21 -9
15 2 23 -1 20 -8 -3 -7 5 -12 17 -13 17 -2 18 1 9 13 -9 10 -9 14 -1 14 6 0
11 -5 11 -11 0 -8 5 -7 15 1 9 7 18 10 22 6 3 -3 16 2 27 11 21 18 21 18 3 -4
-12 -13 -25 -19 -35 -16 -13 5 -14 3 -5 -7 8 -9 6 -17 -8 -31 -24 -24 -26 -47
-1 -28 15 13 16 12 3 -4 -13 -16 -15 -16 -32 -1 -21 19 -25 34 -8 34 5 0 7 -4
4 -10 -11 -17 7 -11 21 8 17 22 18 38 1 23 -14 -11 -56 -7 -66 6 -3 5 -15 10
-25 11 -17 3 -18 1 -7 -12 7 -8 21 -18 31 -21 17 -6 30 -29 36 -70 2 -11 5
-32 8 -47 2 -16 -2 -32 -10 -39 -7 -6 -12 -15 -9 -19 2 -4 -6 -6 -18 -6 -23 2
-72 -18 -81 -33 -3 -5 5 -8 19 -8 14 0 22 3 20 7 -3 4 2 11 10 14 13 4 13 2 5
-14 -13 -25 -13 -27 5 -27 9 0 14 6 11 13 -3 8 0 11 10 7 9 -3 11 -9 5 -17 -5
-6 -10 -15 -10 -21 -1 -5 -5 -10 -11 -9 -27 3 -31 5 -26 13 3 5 -2 15 -11 22
-14 12 -15 11 -9 -9 5 -14 3 -22 -4 -22 -6 0 -9 4 -5 9 8 14 -33 40 -56 34
-23 -6 -24 -19 -2 -31 12 -7 8 -10 -20 -9 -19 1 -33 5 -31 9 3 4 1 8 -5 8 -16
0 -22 -17 -8 -28 6 -5 22 -8 34 -7 17 1 20 -2 13 -10 -8 -9 -4 -12 15 -12 19
0 23 3 15 12 -8 9 -6 15 7 20 17 6 17 7 -1 21 -22 15 -10 19 14 4 12 -7 12
-12 2 -22 -16 -16 -16 -33 1 -21 19 15 58 13 64 -3 4 -11 9 -12 19 -3 10 8 14
8 14 0 0 -6 -3 -11 -7 -12 -5 0 -18 -2 -30 -3 -17 -2 -20 1 -13 9 8 9 4 13
-15 13 -20 0 -23 -3 -14 -14 6 -8 7 -14 2 -14 -5 0 -22 -17 -36 -37 -25 -34
-25 -39 -12 -60 9 -13 11 -23 5 -23 -5 0 -10 5 -10 11 0 5 -4 8 -8 5 -8 -5
-10 1 -14 43 -2 12 -9 19 -20 18 -22 -2 -22 -2 -1 -34 13 -19 14 -28 5 -31
-19 -6 -14 -18 8 -20 61 -5 82 -1 75 16 -3 8 4 24 15 34 25 24 25 33 -1 35
-17 2 -18 -1 -9 -13 12 -14 3 -20 -24 -15 -5 1 -5 -6 -2 -16 6 -14 5 -15 -5
-6 -10 10 -7 20 12 48 25 36 43 47 32 20 -3 -9 -2 -15 3 -14 29 5 34 -2 18
-26 -15 -23 -15 -25 10 -50 26 -26 26 -26 4 -20 l-23 6 24 -20 c13 -12 18 -21
12 -21 -6 0 -11 -7 -11 -15 0 -8 -5 -15 -10 -15 -7 0 -7 6 0 20 6 11 7 20 3
20 -27 -1 -44 -49 -18 -51 8 -1 20 -2 27 -3 12 -1 21 -36 9 -36 -4 0 -7 -9 -8
-20 -2 -21 12 -27 20 -10 3 6 4 5 3 -2 -2 -7 -13 -12 -26 -10 -19 2 -21 0 -10
-13 7 -9 19 -14 26 -11 15 6 24 -14 19 -40 -2 -11 -4 -22 -4 -26 -1 -12 -39
-9 -47 3 -4 7 0 9 14 5 11 -4 23 -3 26 2 6 11 -33 24 -46 16 -13 -8 -9 -34 7
-40 11 -5 12 -11 5 -24 -8 -15 -6 -18 10 -17 12 1 19 7 17 16 -1 10 6 16 19
17 26 1 28 -24 4 -51 -10 -11 -18 -28 -19 -37 -3 -40 -5 -47 -13 -42 -4 3 -8
0 -8 -5 0 -6 7 -11 15 -11 8 0 15 -5 15 -10 0 -7 -7 -7 -22 1 -18 10 -20 9
-14 -6 4 -12 -1 -25 -14 -37 -25 -24 -25 -33 1 -35 17 -2 18 1 9 13 -12 14 -3
20 24 15 5 -1 6 5 2 14 -3 9 -2 13 4 10 15 -10 12 -21 -15 -53 l-26 -31 23
-15 c20 -14 24 -14 45 -1 22 15 29 10 24 -19 -1 -5 5 -6 14 -3 27 11 16 -7
-20 -32 -28 -19 -38 -22 -48 -12 -9 10 -8 11 6 5 10 -3 17 -3 16 2 -5 27 1 36
15 24 12 -9 15 -8 13 9 -2 26 -11 26 -35 1 -12 -13 -25 -18 -37 -14 -15 6 -16
4 -6 -14 8 -15 8 -22 1 -22 -5 0 -10 7 -10 15 0 8 -5 15 -11 15 -5 0 -7 -5 -4
-10 4 -6 3 -10 -2 -9 -4 1 -16 1 -25 0 -26 -2 -22 -19 5 -19 12 -1 41 -2 65
-3 31 -2 49 4 65 18 12 11 28 18 35 16 6 -3 10 1 9 9 -2 7 -2 10 0 6 9 -16 22
-7 20 12 -1 11 -6 19 -12 16 -6 -2 -11 4 -11 14 0 10 5 16 11 14 6 -3 11 4 12
15 1 11 -6 21 -17 24 -19 5 -40 -9 -40 -27 0 -6 5 -5 12 2 7 7 17 12 22 12 6
0 3 -5 -6 -11 -11 -6 -15 -16 -11 -27 3 -9 -9 -1 -26 18 -25 28 -31 30 -26 13
7 -25 -6 -36 -30 -27 -14 6 -14 9 6 30 22 24 29 80 14 115 -3 10 -2 20 4 23 6
4 8 13 5 20 -3 7 3 19 13 26 14 11 15 11 6 1 -6 -7 -9 -19 -7 -26 3 -7 1 -16
-5 -20 -6 -3 -11 -10 -11 -14 0 -14 38 -19 51 -7 11 9 11 8 1 -6 -9 -11 -10
-18 -2 -23 5 -3 10 -1 10 6 0 7 3 9 7 5 5 -4 -1 -14 -11 -22 -11 -7 -17 -17
-13 -20 4 -4 15 -1 24 7 16 13 17 12 5 -3 -15 -19 -8 -38 12 -38 8 0 19 -7 26
-15 7 -8 8 -15 3 -15 -5 0 -10 -21 -11 -47 -1 -27 -2 -57 -2 -67 -1 -11 5 -23
12 -28 9 -6 8 -8 -6 -6 -10 2 -21 -3 -24 -11 -3 -8 0 -11 7 -7 6 4 11 2 11 -3
0 -6 5 -11 11 -11 5 0 7 5 4 10 -3 6 -1 10 5 10 7 0 10 -6 7 -12 -4 -13 -68
-19 -95 -10 -7 2 -10 12 -7 21 3 11 -1 17 -13 19 -9 1 -32 3 -50 5 -20 2 -31
0 -29 -7 2 -6 12 -11 23 -12 42 -2 45 -4 40 -22 -4 -12 0 -18 12 -19 84 -8
105 -8 123 5 11 7 17 18 14 23 -4 5 -1 9 5 9 7 0 9 -8 5 -20 -8 -24 20 -39 38
-21 9 10 8 16 -7 27 -11 8 -16 14 -11 14 5 0 17 -7 27 -17 16 -14 18 -14 18 0
0 9 -9 19 -21 22 -17 6 -18 9 -7 23 11 13 10 15 -5 9 -10 -4 -16 -3 -13 2 6
10 -39 32 -48 24 -8 -9 -7 -23 2 -22 18 3 30 -2 35 -14 3 -7 -3 -13 -13 -13
-11 0 -16 6 -13 14 3 7 0 12 -8 10 -9 -2 -13 4 -11 17 2 11 4 35 4 53 0 31 7
39 21 26 3 -4 2 -15 -3 -25 -7 -13 -6 -22 6 -33 18 -18 39 -22 28 -4 -4 7 -3
8 5 4 6 -4 9 -11 6 -16 -3 -4 2 -10 10 -14 9 -3 12 -12 8 -22 -4 -11 -2 -15 4
-11 5 4 15 -4 21 -18 9 -20 8 -25 -9 -30 -10 -4 -16 -11 -13 -17 4 -6 10 -6
17 1 22 22 35 11 35 -31 0 -24 3 -50 6 -59 8 -18 -27 -54 -43 -44 -6 3 -11 2
-11 -3 0 -19 14 -21 37 -7 13 9 23 12 23 7 0 -5 -11 -14 -25 -20 -14 -6 -25
-16 -25 -22 0 -6 -4 -9 -8 -6 -4 2 -13 -4 -20 -15 -17 -27 3 -24 33 5 18 18
26 21 36 12 9 -8 11 -7 6 6 -4 11 -2 15 7 12 9 -3 11 7 10 38 -1 24 -5 50 -9
59 -3 10 -2 20 4 24 6 3 9 0 5 -8 -3 -8 2 -14 11 -14 10 0 13 6 9 19 -3 10 -1
18 5 18 6 0 14 0 19 0 12 0 12 -43 -1 -68 -8 -18 -8 -25 1 -31 21 -13 24 -57
5 -72 -11 -10 -14 -10 -9 -1 4 6 2 12 -3 12 -6 0 -11 5 -11 11 0 8 4 8 14 -1
12 -9 15 -8 13 9 -1 13 -6 19 -14 17 -6 -3 -10 1 -7 7 2 7 -2 21 -11 32 -14
19 -15 18 -11 -17 4 -31 -1 -43 -25 -69 -16 -17 -29 -27 -29 -22 0 5 5 14 12
21 9 9 9 12 1 12 -7 0 -18 -9 -26 -20 -8 -11 -17 -17 -20 -13 -4 3 -7 1 -7 -6
0 -20 60 -5 77 19 13 19 16 19 26 6 12 -16 57 -12 57 5 0 4 9 6 20 4 11 -2 20
1 20 6 0 5 6 9 13 8 6 -2 29 5 51 14 49 22 50 22 121 -7 32 -14 63 -22 67 -20
4 3 8 1 8 -4 0 -5 19 -13 43 -17 23 -4 47 -9 52 -11 43 -13 75 -16 185 -19 68
-2 129 -1 135 3 5 4 21 7 35 7 53 3 163 33 239 67 l44 20 78 -31 c112 -44 189
-61 315 -68 182 -10 333 21 488 99 103 51 153 86 236 165 141 133 229 279 281
468 25 93 35 314 18 405 -59 319 -252 579 -533 718 -160 79 -275 103 -466 98
-145 -4 -235 -23 -349 -72 -56 -24 -64 -25 -93 -13 -18 8 -35 14 -38 15 -6 1
-36 12 -65 24 -59 24 -156 40 -284 47 -80 4 -102 3 -96 -7 5 -9 3 -10 -11 -3
-11 5 -28 8 -39 6z m-550 -33 c4 -6 10 -8 15 -5 4 3 11 -2 14 -11 4 -12 10
-13 19 -6 9 8 12 4 13 -16 1 -15 -1 -21 -3 -14 -7 19 -22 14 -20 -8 1 -11 6
-19 12 -16 6 2 11 -4 11 -14 0 -11 -5 -16 -15 -12 -9 3 -12 1 -7 -6 9 -15 -14
-26 -27 -13 -9 9 -8 11 4 6 13 -5 16 2 14 40 -1 39 -6 49 -31 65 -16 11 -24
20 -17 20 6 0 15 -5 18 -10z m120 -36 c13 -9 28 -13 33 -10 5 3 18 -1 28 -10
18 -14 18 -15 -2 -5 -17 8 -25 7 -35 -6 -12 -14 -11 -15 11 -10 14 4 19 4 11
1 -11 -5 -11 -8 0 -16 11 -8 10 -9 -3 -4 -10 3 -20 1 -23 -4 -7 -11 -35 -2
-35 12 0 7 5 6 14 -1 11 -9 14 -6 14 14 0 19 -4 23 -13 15 -10 -8 -13 -6 -11
6 0 9 -4 19 -9 21 -18 6 -10 -66 8 -80 16 -11 15 -12 -6 -13 -22 -2 -24 2 -24
52 0 58 5 62 42 38z m459 -72 c3 -5 -1 -9 -9 -9 -8 0 -12 4 -9 9 3 4 7 8 9 8
2 0 6 -4 9 -8z m-624 -157 c0 -2 -10 -10 -22 -16 -21 -11 -22 -11 -9 4 13 16
31 23 31 12z m-195 -305 c3 -5 1 -10 -4 -10 -6 0 -11 5 -11 10 0 6 2 10 4 10
3 0 8 -4 11 -10z m-45 -130 c0 -5 -2 -10 -4 -10 -3 0 -8 5 -11 10 -3 6 -1 10
4 10 6 0 11 -4 11 -10z m-23 -136 c0 -9 -5 -10 -19 -3 -10 5 -18 12 -18 14 0
2 8 3 18 2 10 0 19 -7 19 -13z m-5 -36 c-13 -13 -16 -32 -4 -24 4 2 8 -4 8
-15 0 -24 -3 -24 -16 2 -11 19 0 49 18 49 3 0 1 -5 -6 -12z m68 -448 c0 -5 -5
-10 -11 -10 -5 0 -7 5 -4 10 3 6 8 10 11 10 2 0 4 -4 4 -10z m55 -90 c3 -5 1
-10 -4 -10 -6 0 -11 5 -11 10 0 6 2 10 4 10 3 0 8 -4 11 -10z m75 -114 c0 -3
-4 -8 -10 -11 -5 -3 -10 -1 -10 4 0 6 5 11 10 11 6 0 10 -2 10 -4z m136 -148
c4 4 4 1 0 -6 -4 -7 -11 -10 -16 -7 -4 3 -10 2 -13 -2 -2 -5 -2 -2 0 6 2 8 -2
21 -9 30 -7 10 -3 7 8 -5 12 -13 25 -20 30 -16z m-126 22 c0 -5 -2 -10 -4 -10
-3 0 -8 5 -11 10 -3 6 -1 10 4 10 6 0 11 -4 11 -10z m844 -58 c3 -5 -1 -9 -9
-9 -8 0 -12 4 -9 9 3 4 7 8 9 8 2 0 6 -4 9 -8z m-639 -59 c-1 -12 6 -30 16
-39 11 -10 19 -12 19 -6 0 6 -4 14 -10 17 -5 3 -10 10 -10 16 0 5 5 9 10 9 6
0 9 -5 8 -11 -2 -6 3 -14 10 -16 8 -3 10 1 6 14 -5 13 -2 12 10 -4 17 -23 43
-33 30 -11 -4 7 -3 8 5 4 9 -6 9 -11 0 -22 -10 -12 -13 -12 -23 2 -11 14 -13
14 -25 0 -7 -8 -20 -12 -28 -9 -11 4 -14 2 -9 -5 4 -7 5 -12 2 -12 -2 0 -11
-3 -20 -6 -9 -3 -16 -1 -16 6 0 6 5 8 10 5 6 -3 10 -4 10 -1 0 2 3 13 6 23 6
14 4 16 -6 6 -11 -10 -16 -9 -26 5 -16 21 -17 32 -4 32 6 0 9 -5 8 -11 -2 -6
2 -13 7 -15 6 -2 11 5 12 16 1 11 -4 20 -13 20 -8 0 -14 4 -14 8 0 4 8 8 19 8
14 0 18 -7 16 -23z m645 -17 c0 -2 -8 -10 -17 -17 -16 -13 -17 -12 -4 4 13 16
21 21 21 13z m-580 -40 c0 -2 -8 -10 -17 -17 -16 -13 -17 -12 -4 4 13 16 21
21 21 13z"/>
<path d="M970 2991 c0 -5 -9 -8 -20 -6 -11 2 -20 -1 -20 -6 0 -5 8 -9 17 -7
24 4 27 -42 5 -60 -10 -7 -16 -15 -14 -17 9 -18 -1 -24 -20 -11 -16 11 -25 13
-35 4 -15 -12 -17 -38 -3 -38 6 0 10 -5 10 -11 0 -5 -4 -8 -9 -4 -11 6 -42
-35 -35 -47 9 -14 22 -9 20 8 0 9 5 19 12 21 6 3 12 0 12 -7 0 -6 -4 -8 -10
-5 -5 3 -10 2 -10 -3 0 -8 22 -22 33 -22 1 0 2 20 3 45 0 38 -2 45 -15 40 -12
-5 -13 -3 -4 6 13 13 36 2 27 -13 -5 -7 -2 -9 7 -6 10 4 15 -1 15 -12 0 -10
-5 -16 -11 -14 -6 3 -11 -5 -12 -16 -2 -19 11 -28 20 -12 2 4 2 2 1 -5 -2 -6
8 -18 21 -27 22 -15 24 -14 22 4 -1 11 -6 19 -12 16 -17 -6 -13 93 3 103 8 5
13 11 13 15 -3 22 2 25 23 11 21 -14 25 -14 46 3 l23 18 -29 23 c-27 22 -27
23 -5 16 17 -5 22 -4 19 6 -3 8 -16 14 -30 14 -20 1 -25 -4 -25 -21 0 -14 4
-21 12 -18 6 3 17 -2 24 -9 9 -12 8 -16 -6 -21 -11 -4 -22 -1 -29 8 -6 9 -13
13 -16 11 -3 -3 -4 6 -3 20 2 14 -1 27 -6 31 -5 3 -9 1 -9 -5z"/>
<path d="M910 2973 c0 -6 -11 -9 -25 -8 -33 4 -32 -7 6 -44 36 -36 44 -38 46
-10 1 14 -2 18 -10 11 -8 -6 -18 -3 -29 9 -16 17 -15 18 5 17 12 -1 29 -8 38
-15 15 -12 16 -11 16 14 0 15 -2 22 -4 15 -4 -10 -9 -9 -24 4 -10 9 -19 13
-19 7z"/>
<path d="M824 2948 c-8 -12 -11 -25 -17 -73 -1 -12 -10 -21 -22 -21 -11 -1
-27 -5 -36 -8 -28 -12 -40 16 -19 44 17 22 21 24 41 12 11 -7 24 -10 27 -6 4
4 1 9 -5 11 -7 3 -13 9 -13 15 0 6 6 6 15 -2 11 -9 15 -9 15 -1 0 16 -33 27
-38 13 -2 -7 -12 -12 -23 -12 -10 0 -19 -5 -19 -11 0 -5 -3 -8 -8 -5 -4 2 -25
-7 -47 -20 l-40 -25 33 6 c20 3 31 2 28 -4 -4 -5 -3 -11 1 -14 5 -2 1 -2 -7 0
-41 12 -80 4 -106 -22 -14 -14 -29 -25 -33 -25 -14 0 -42 -37 -39 -51 2 -7 9
-20 16 -27 7 -8 10 -18 7 -23 -4 -5 -2 -9 4 -9 19 0 20 17 2 46 -16 26 -16 31
-3 43 12 12 13 11 7 -10 -6 -20 -5 -22 6 -11 16 15 29 16 29 2 0 -5 -5 -9 -11
-7 -6 1 -13 -3 -15 -8 -2 -6 5 -11 16 -12 11 -1 20 4 21 10 0 7 2 20 4 30 2
12 -1 17 -10 13 -9 -3 -12 0 -8 10 4 11 9 12 19 3 17 -14 18 2 1 20 -8 9 -8
12 0 7 6 -3 14 0 16 6 3 7 4 -2 3 -20 -2 -21 1 -31 8 -29 6 2 11 15 10 29 -1
23 2 25 25 22 30 -5 86 -5 119 -1 39 6 53 31 52 97 0 20 2 22 10 10 5 -8 7
-24 4 -35 -6 -19 -5 -19 11 -4 14 13 15 21 6 38 -13 24 -26 27 -37 9z m-109
-58 c-3 -5 -12 -10 -18 -10 -7 0 -6 4 3 10 19 12 23 12 15 0z"/>
<path d="M1010 2940 c0 -5 5 -10 10 -10 6 0 10 5 10 10 0 6 -4 10 -10 10 -5 0
-10 -4 -10 -10z"/>
<path d="M865 2900 c-10 -11 -21 -17 -25 -15 -4 3 -7 -6 -7 -18 0 -15 6 -23
18 -24 15 -1 17 2 10 14 -6 12 -3 21 13 34 11 9 18 20 15 23 -3 3 -14 -3 -24
-14z"/>
<path d="M983 2889 c-2 -17 1 -18 13 -9 14 12 20 3 15 -24 -1 -5 6 -5 16 -2
14 6 16 5 6 -5 -10 -10 -19 -9 -41 8 l-29 21 0 -39 c0 -33 2 -37 15 -27 9 8
10 14 3 16 -6 2 -11 8 -11 14 0 6 6 5 15 -2 17 -14 71 -18 99 -7 23 9 59 -20
51 -41 -3 -8 0 -12 7 -9 15 5 11 39 -5 49 -7 4 -3 6 9 6 14 -2 20 -7 17 -19
-6 -22 12 -32 36 -20 14 8 20 7 24 -3 4 -10 -1 -12 -16 -9 -18 4 -19 3 -7 -6
10 -7 11 -11 3 -11 -7 0 -13 -5 -13 -11 0 -5 5 -7 10 -4 6 3 10 1 10 -5 0 -7
-6 -10 -12 -7 -7 2 -12 12 -12 21 2 16 -8 21 -19 9 -4 -3 0 -17 8 -30 9 -13
11 -23 6 -23 -5 0 -12 9 -16 20 -3 11 -19 27 -36 37 -16 9 -29 21 -29 26 0 5
7 4 15 -3 8 -7 15 -8 15 -2 0 11 -29 37 -35 31 -2 -3 -6 -17 -9 -33 -4 -21 -2
-26 9 -22 10 3 12 0 8 -11 -4 -10 -2 -14 4 -10 6 4 18 4 27 1 14 -5 14 -9 4
-22 -11 -13 -10 -15 4 -9 13 4 15 2 11 -10 -5 -12 -3 -14 8 -8 8 5 4 -3 -7
-16 -23 -26 -25 -58 -5 -82 8 -10 9 -17 2 -22 -6 -3 -15 -14 -20 -23 -7 -14
-5 -18 10 -19 11 -1 17 2 14 7 -3 5 -1 19 5 30 9 16 8 25 -1 36 -9 11 -9 17 1
29 6 8 9 18 7 22 -3 5 1 17 9 28 11 15 17 16 26 7 18 -18 26 -14 24 12 -2 16
1 23 9 20 8 -3 12 4 12 18 0 13 3 31 8 41 6 14 10 15 23 5 13 -11 14 -10 10 2
-3 9 -17 15 -35 15 -32 1 -83 23 -83 36 0 4 -13 5 -30 3 -17 -3 -39 2 -54 11
-14 9 -30 14 -36 10 -6 -4 -20 2 -31 14 -25 26 -34 27 -36 0z m87 -34 c0 -8
-4 -15 -10 -15 -5 0 -7 7 -4 15 4 8 8 15 10 15 2 0 4 -7 4 -15z m120 -35 c0
-5 -5 -10 -11 -10 -5 0 -7 5 -4 10 3 6 8 10 11 10 2 0 4 -4 4 -10z m50 -54 c0
-3 -4 -8 -10 -11 -5 -3 -10 -1 -10 4 0 6 5 11 10 11 6 0 10 -2 10 -4z"/>
<path d="M753 2886 c16 -12 16 -14 2 -20 -10 -4 -14 -2 -9 5 4 7 2 10 -5 8
-18 -6 -9 -25 9 -21 8 2 23 3 33 3 9 0 17 5 17 10 0 6 -4 8 -9 5 -5 -3 -11 1
-15 9 -3 8 -13 15 -23 15 -17 -1 -17 -1 0 -14z"/>
<path d="M1030 2890 c0 -5 5 -10 10 -10 6 0 10 5 10 10 0 6 -4 10 -10 10 -5 0
-10 -4 -10 -10z"/>
<path d="M1190 2888 c0 -5 5 -6 10 -3 9 6 14 -8 11 -27 -2 -12 13 -9 34 5 10
8 15 19 11 25 -8 13 -66 13 -66 0z m55 -8 c3 -5 1 -10 -4 -10 -6 0 -11 5 -11
10 0 6 2 10 4 10 3 0 8 -4 11 -10z"/>
<path d="M806 2832 c-8 -7 -38 -12 -89 -15 -20 -1 -36 -6 -34 -12 5 -15 65
-14 78 1 8 10 15 11 25 4 9 -8 15 -7 22 6 8 15 10 15 16 -2 6 -16 8 -16 16 -4
6 8 10 17 10 20 0 8 -37 10 -44 2z"/>
<path d="M1345 2820 c10 -11 20 -18 23 -15 7 6 -18 35 -31 35 -5 0 -2 -9 8
-20z"/>
<path d="M647 2823 c-10 -10 -8 -25 2 -19 11 7 22 -19 15 -37 -3 -8 3 -13 16
-13 11 0 18 5 16 11 -27 61 -36 72 -49 58z"/>
<path d="M989 2816 c-4 -3 -6 -46 -2 -46 2 0 14 7 27 15 13 9 31 12 40 9 14
-5 15 -9 4 -15 -7 -5 -20 -6 -29 -4 -19 6 -20 -28 -1 -47 15 -15 43 8 35 30
-4 14 -3 14 5 3 6 -8 7 -21 4 -30 -5 -14 -4 -14 11 -2 15 12 16 16 3 30 -7 9
-12 25 -10 36 3 17 -3 20 -41 21 -25 0 -46 0 -46 0z m61 -66 c0 -5 -4 -10 -10
-10 -5 0 -10 5 -10 10 0 6 5 10 10 10 6 0 10 -4 10 -10z"/>
<path d="M762 2798 c-19 -19 -14 -32 6 -17 14 11 15 11 5 0 -12 -14 -7 -41 11
-54 7 -5 3 -7 -8 -5 -10 2 -21 -2 -23 -8 -2 -6 14 -9 42 -8 25 1 43 -2 39 -7
-3 -5 0 -9 5 -9 6 0 11 7 11 15 0 8 5 15 10 15 7 0 7 -7 -1 -22 -10 -18 -9
-20 6 -14 12 4 25 -1 37 -14 24 -25 33 -25 35 1 2 17 -1 18 -13 9 -14 -12 -20
-3 -15 24 1 5 -6 5 -16 2 -14 -6 -16 -5 -6 5 10 10 19 8 43 -9 34 -25 41 -15
10 13 -20 18 -79 24 -111 11 -18 -8 -54 27 -45 43 8 12 36 3 36 -11 0 -6 -6
-5 -15 2 -8 7 -15 8 -15 2 0 -12 29 -37 36 -30 3 3 6 15 7 26 0 11 5 19 9 16
4 -3 5 -11 2 -18 -4 -9 4 -12 28 -9 18 2 41 4 51 5 34 4 10 23 -29 23 -21 0
-45 4 -51 8 -7 5 -17 5 -23 2 -6 -4 -7 1 -3 12 6 16 5 16 -11 4 -13 -11 -19
-12 -25 -3 -5 9 -10 9 -19 0z"/>
<path d="M635 2780 c-3 -5 1 -10 9 -10 9 0 16 5 16 10 0 6 -4 10 -9 10 -6 0
-13 -4 -16 -10z"/>
<path d="M705 2780 c-3 -5 1 -10 9 -10 9 0 16 5 16 10 0 6 -4 10 -9 10 -6 0
-13 -4 -16 -10z"/>
<path d="M603 2762 c-1 -12 7 -18 28 -19 36 -3 37 3 1 21 -25 13 -28 13 -29
-2z"/>
<path d="M716 2757 c-17 -12 -17 -14 -2 -20 9 -4 16 -2 16 3 0 6 5 10 11 10 8
0 7 -6 -2 -17 -12 -14 -12 -16 1 -11 17 5 20 40 5 45 -6 2 -19 -3 -29 -10z"/>
<path d="M991 2756 c-8 -10 -8 -16 3 -25 11 -9 14 -7 14 14 0 29 -2 30 -17 11z"/>
<path d="M473 2736 c-13 -12 -23 -33 -23 -46 1 -65 5 -90 15 -87 9 3 10 26 3
69 -2 9 0 16 3 15 13 -4 38 26 36 44 -5 28 -10 29 -34 5z m17 -14 c0 -5 -7 -9
-15 -9 -8 0 -12 4 -9 9 3 4 9 8 15 8 5 0 9 -4 9 -8z"/>
<path d="M946 2751 c-4 -6 -14 -8 -24 -5 -12 4 -11 2 3 -7 35 -22 60 -84 28
-72 -8 3 -13 2 -12 -3 5 -29 -2 -34 -25 -19 -23 15 -26 15 -60 -15 -29 -26
-39 -29 -55 -21 -25 14 -34 14 -26 1 18 -29 43 -29 81 0 37 30 62 34 56 10 -2
-7 3 -10 10 -7 8 3 14 -2 14 -13 0 -10 -5 -16 -11 -14 -6 3 -11 -5 -12 -16 -2
-19 11 -28 20 -12 2 4 2 2 1 -5 -2 -6 8 -18 21 -27 22 -15 24 -14 22 4 -1 11
-6 19 -12 16 -6 -2 -12 4 -12 14 -2 17 0 17 17 3 11 -9 17 -20 14 -25 -8 -13
10 -9 26 5 20 18 -31 -51 -58 -78 -23 -23 -23 -24 -4 -22 12 0 25 12 31 25 7
14 16 20 23 16 7 -5 9 -2 5 8 -3 9 2 23 13 33 18 16 18 18 1 36 -10 11 -25 17
-33 14 -32 -12 -49 56 -19 74 22 14 22 77 1 96 -11 10 -20 12 -24 6z m22 -36
c-3 -3 -9 2 -12 12 -6 14 -5 15 5 6 7 -7 10 -15 7 -18z"/>
<path d="M665 2740 c-4 -6 -18 -10 -33 -10 -47 0 -72 -4 -72 -11 0 -4 6 -9 12
-11 9 -3 8 -12 -5 -31 -21 -32 -21 -32 1 -34 11 -1 18 6 20 18 4 42 6 48 14
43 4 -3 8 0 8 5 0 6 5 11 10 11 6 0 4 -10 -5 -23 -13 -21 -13 -25 1 -45 8 -12
20 -20 25 -17 5 4 9 1 9 -5 0 -7 -8 -9 -22 -4 -20 6 -21 5 -9 -9 7 -9 17 -14
22 -11 5 3 9 1 9 -5 0 -5 -13 -8 -30 -6 -36 4 -38 -4 -5 -39 23 -25 46 -35 44
-18 -4 25 2 34 15 23 11 -9 14 -6 14 14 0 18 -4 23 -12 16 -8 -7 -12 -4 -12 9
0 14 4 16 18 9 12 -7 16 -19 14 -39 -3 -27 -1 -29 21 -25 14 2 36 11 48 19 18
12 25 12 28 3 2 -6 8 -9 12 -4 5 4 6 10 2 13 -10 10 -69 15 -63 5 3 -5 -1 -12
-10 -15 -21 -8 -24 -8 -24 5 0 5 4 8 9 5 11 -7 23 22 15 35 -3 5 -11 9 -17 9
-8 0 -8 -3 2 -9 9 -6 10 -11 2 -15 -10 -7 -16 6 -12 28 1 5 -6 5 -16 2 -14 -5
-15 -4 -7 4 8 8 18 9 30 3 11 -5 30 -8 44 -7 14 1 33 -3 43 -8 19 -10 47 5 47
25 0 5 -8 3 -18 -6 -13 -12 -21 -13 -32 -6 -12 9 -12 10 3 5 19 -6 22 2 7 24
-9 13 -12 13 -21 -2 -7 -13 -18 -16 -42 -12 -50 8 -70 6 -79 -8 -6 -9 -8 -8
-6 6 2 10 -3 21 -11 24 -8 3 -11 0 -7 -7 4 -6 3 -11 -2 -11 -18 0 -22 33 -7
50 18 19 82 21 78 2 -2 -6 7 -14 18 -17 15 -5 17 -10 9 -20 -8 -10 -5 -12 15
-12 18 0 23 3 16 11 -7 9 -3 11 17 10 41 -2 44 -3 37 -14 -4 -6 6 -8 25 -6 35
4 47 12 35 24 -4 4 -10 2 -12 -5 -3 -8 -14 -6 -36 7 -18 10 -44 17 -59 15 -20
-2 -37 5 -59 26 -33 31 -44 35 -54 19z m-24 -164 c5 3 9 0 9 -6 0 -7 -7 -9
-16 -6 -9 3 -18 6 -20 6 -3 0 -2 5 2 12 6 9 9 9 12 0 2 -7 8 -10 13 -6z"/>
<path d="M1103 2738 c-14 -18 -9 -81 7 -86 7 -3 10 0 7 5 -3 5 3 16 13 23 14
10 16 17 8 27 -5 7 -14 10 -19 7 -5 -3 -9 0 -9 5 0 6 5 11 10 11 6 0 10 5 10
10 0 14 -16 12 -27 -2z m27 -42 c0 -3 -4 -8 -10 -11 -5 -3 -10 -1 -10 4 0 6 5
11 10 11 6 0 10 -2 10 -4z"/>
<path d="M1315 2740 c-3 -5 -1 -10 4 -10 6 0 11 5 11 10 0 6 -2 10 -4 10 -3 0
-8 -4 -11 -10z"/>
<path d="M1004 2711 c-5 -3 -10 -14 -12 -23 -3 -17 11 -23 48 -19 13 2 13 1 0
-9 -13 -10 -13 -11 0 -6 8 3 23 9 32 12 15 5 22 42 8 45 -25 5 -69 5 -76 0z
m50 -12 c-2 -4 2 -9 8 -11 7 -3 -3 -5 -22 -5 -19 0 -29 2 -22 5 6 2 10 7 8 11
-3 4 4 7 14 7 10 0 17 -3 14 -7z"/>
<path d="M500 2695 c-7 -8 -16 -12 -21 -9 -11 6 -11 1 -3 -20 3 -9 10 -16 16
-16 5 0 7 4 4 8 -12 19 9 30 29 15 20 -15 20 -15 0 -9 -16 5 -21 1 -22 -15 -2
-19 0 -19 19 -7 12 8 29 25 37 39 15 22 15 23 -1 11 -18 -14 -43 -7 -33 9 10
15 -12 10 -25 -6z"/>
<path d="M640 2696 c-18 -18 -10 -30 9 -12 18 16 19 16 17 -1 -1 -14 7 -18 32
-20 17 -1 32 3 32 8 0 6 -4 7 -10 4 -9 -5 -14 6 -12 26 1 10 -57 6 -68 -5z
m50 -16 c0 -5 -2 -10 -4 -10 -3 0 -8 5 -11 10 -3 6 -1 10 4 10 6 0 11 -4 11
-10z"/>
<path d="M421 2686 c-9 -10 -8 -16 4 -26 11 -9 12 -16 5 -25 -5 -6 -7 -15 -3
-18 14 -15 21 -6 17 21 -3 15 -6 35 -7 45 -2 21 -2 21 -16 3z"/>
<path d="M591 2660 c3 -19 -10 -50 -22 -50 -4 0 -6 6 -3 14 3 9 -2 13 -18 11
-38 -4 -39 -5 -33 -15 10 -17 -7 -11 -22 8 -14 16 -14 16 -9 0 3 -10 1 -20 -4
-23 -6 -4 -10 -11 -10 -17 0 -6 6 -6 15 2 9 7 18 10 22 6 3 -3 1 -6 -5 -6 -7
0 -12 -4 -12 -9 0 -6 9 -9 20 -8 11 1 19 6 16 12 -2 6 4 11 14 11 11 0 16 -5
12 -15 -3 -9 -1 -12 6 -7 15 9 26 -14 13 -27 -9 -9 -11 -8 -6 4 5 14 0 16 -32
14 -21 -1 -45 1 -54 6 -18 9 -63 -17 -54 -32 4 -5 1 -9 -4 -9 -6 0 -11 5 -11
10 0 18 -16 10 -17 -9 -1 -16 5 -18 35 -16 20 1 44 -1 53 -6 18 -9 63 17 54
32 -4 5 -2 9 4 9 5 0 11 -6 14 -12 3 -10 9 -10 28 1 19 10 21 10 12 0 -20 -21
-15 -34 6 -15 19 17 18 18 -5 43 -18 19 -21 29 -12 34 7 4 16 5 20 3 10 -6 3
54 -7 64 -4 4 -6 0 -4 -8z m-46 -40 c3 -5 1 -10 -4 -10 -6 0 -11 5 -11 10 0 6
2 10 4 10 3 0 8 -4 11 -10z m-61 -75 c17 -17 30 -20 21 -5 -3 6 -1 10 5 10 14
0 8 -22 -7 -27 -6 -2 -18 3 -26 12 -17 17 -31 20 -22 5 3 -5 1 -10 -4 -10 -12
0 -14 13 -4 23 10 11 20 8 37 -8z"/>
<path d="M368 2614 c-18 -25 -32 -48 -30 -51 2 -2 -6 -12 -16 -22 -21 -17 -33
-49 -19 -50 21 -2 27 0 27 10 0 5 -4 7 -10 4 -5 -3 -10 -1 -10 5 0 7 7 9 16 6
9 -3 18 -6 21 -6 3 0 0 -6 -7 -14 -9 -12 -8 -15 9 -13 27 2 26 11 -1 37 -15
13 -17 19 -7 15 12 -5 16 0 15 17 0 13 1 23 4 23 3 0 18 8 33 18 26 17 33 13
28 -17 -1 -5 5 -6 14 -2 9 3 20 6 23 6 4 0 -6 12 -23 26 -20 17 -26 27 -17 30
13 6 7 24 -8 24 -5 0 -24 -21 -42 -46z m32 2 c0 -2 -7 -7 -16 -10 -8 -3 -12
-2 -9 4 6 10 25 14 25 6z"/>
<path d="M984 2646 c-3 -9 -11 -13 -16 -10 -6 4 -9 1 -6 -6 6 -20 28 -24 28
-6 0 8 5 18 11 21 6 4 9 0 7 -10 -2 -10 2 -20 8 -22 6 -2 11 6 10 19 -1 27
-33 37 -42 14z"/>
<path d="M880 2620 c-19 -12 -23 -53 -4 -46 19 7 17 -4 -3 -19 -16 -12 -23
-37 -24 -80 0 -19 -15 -35 -34 -35 -5 0 -4 4 4 9 8 5 15 21 17 36 2 22 1 25
-12 14 -8 -7 -13 -18 -10 -25 3 -7 0 -11 -7 -8 -7 2 -13 -4 -14 -15 -2 -21 26
-33 48 -21 21 12 64 6 61 -8 -1 -7 5 -12 15 -10 10 2 26 -11 40 -32 13 -19 33
-39 44 -44 10 -5 19 -13 19 -19 0 -5 -6 -4 -14 2 -18 15 -56 22 -56 10 0 -5
-5 -9 -11 -9 -8 0 -8 4 1 14 9 12 8 15 -9 13 -12 -1 -20 -6 -17 -12 2 -6 -4
-11 -14 -11 -10 0 -16 6 -13 12 6 16 22 22 51 19 16 -1 21 2 17 12 -3 8 -5 17
-5 19 0 2 -5 4 -11 4 -5 0 -7 -4 -4 -10 3 -5 1 -10 -5 -10 -7 0 -9 8 -4 22 6
20 5 21 -9 9 -9 -7 -14 -17 -11 -22 5 -8 -10 -13 -30 -10 -5 1 -5 -6 -2 -16 6
-14 4 -15 -5 -6 -13 13 -3 37 12 28 5 -4 9 -1 9 4 0 15 -25 14 -38 -2 -9 -10
-7 -19 4 -35 9 -13 11 -22 5 -22 -6 0 -11 4 -11 9 0 15 -46 61 -53 54 -4 -3
-7 -1 -7 5 0 7 10 11 21 9 12 -1 24 3 26 9 2 7 -6 10 -22 9 -26 -3 -27 -1 -29
49 -1 16 -6 31 -12 33 -9 3 -10 -28 -1 -97 2 -13 15 -32 30 -40 21 -13 24 -19
14 -30 -10 -10 -9 -12 5 -7 13 4 15 2 11 -10 -4 -11 -2 -14 5 -9 7 4 12 2 12
-3 0 -6 5 -11 11 -11 5 0 7 5 4 10 -3 6 -1 10 5 10 7 0 10 -6 7 -12 -2 -7 -13
-13 -24 -13 -12 0 -30 -8 -41 -18 -12 -11 -25 -16 -30 -13 -5 3 -18 -1 -29 -9
-21 -15 -26 -56 -7 -62 7 -2 10 6 9 22 -2 14 2 26 8 27 7 0 17 2 24 2 6 1 21
10 32 20 12 11 24 16 28 13 3 -4 16 0 29 8 19 12 23 12 28 0 3 -10 0 -12 -11
-8 -10 4 -14 2 -10 -4 6 -9 1 -11 -42 -15 -18 -2 -27 -38 -10 -38 4 0 -2 -18
-14 -40 -12 -22 -26 -40 -30 -40 -4 0 -3 8 2 19 6 10 7 22 3 26 -4 5 -1 5 6 1
6 -4 12 -2 12 3 0 6 -7 11 -15 11 -8 0 -15 5 -15 10 0 7 6 7 19 0 16 -8 20 -7
18 9 -1 12 -9 19 -23 19 -25 0 -36 -26 -22 -52 6 -10 5 -22 -2 -33 -9 -16 -10
-15 -5 5 6 21 -10 30 -40 22 -5 -2 -23 -4 -40 -4 -34 -1 -58 -13 -50 -26 11
-18 -17 -21 -36 -4 -22 20 -26 18 -33 -20 -4 -21 -2 -26 9 -22 10 3 12 0 8
-12 -6 -14 -4 -15 9 -5 12 11 17 9 28 -12 14 -25 30 -25 30 1 0 8 -4 12 -10 9
-5 -3 -10 -1 -10 5 0 6 -11 16 -25 22 -14 6 -25 15 -25 20 0 5 10 2 22 -6 23
-17 48 -6 48 20 0 8 5 14 11 14 5 0 8 -4 4 -9 -3 -5 -1 -12 5 -16 5 -3 10 1
10 9 0 9 5 16 10 16 7 0 7 -7 2 -17 -13 -28 -6 -65 16 -83 14 -12 20 -26 17
-46 -3 -28 16 -77 34 -88 5 -3 9 5 9 19 0 14 -4 22 -9 19 -10 -6 -11 -3 -13
38 -1 20 1 24 10 17 8 -7 12 -2 12 16 0 20 -3 23 -13 15 -10 -8 -15 -6 -20 9
-3 11 -11 20 -18 18 -14 -2 -18 52 -5 73 6 10 7 7 2 -10 -6 -22 -5 -23 9 -12
9 8 13 20 10 28 -3 8 1 14 8 14 7 0 9 -3 6 -6 -12 -13 13 -43 31 -38 12 4 13
3 4 -3 -14 -11 -16 -30 -8 -80 4 -24 1 -35 -12 -42 -15 -9 -15 -12 -2 -21 21
-14 25 -13 27 8 1 9 4 28 6 42 2 14 -1 33 -6 44 -6 12 -5 22 3 30 8 8 9 7 4
-7 -3 -10 -3 -17 2 -16 22 4 35 -2 28 -12 -4 -8 -9 -7 -15 2 -6 10 -9 10 -9 2
0 -6 4 -14 9 -17 13 -8 42 4 35 15 -3 5 0 9 6 9 7 0 9 -7 6 -16 -3 -9 -6 -18
-6 -20 0 -3 -4 -3 -9 0 -5 3 -8 -5 -8 -19 0 -30 9 -25 35 19 l21 35 -20 25
c-19 24 -15 32 14 27 4 0 7 6 7 14 0 17 -16 20 -25 5 -3 -5 -11 -10 -18 -10
-6 0 -2 7 9 15 10 8 14 15 7 15 -6 0 -18 -7 -27 -15 -21 -21 -28 -19 -14 4 7
11 15 18 19 15 4 -2 7 10 6 27 -1 22 4 35 17 43 14 8 20 8 23 -1 3 -7 9 -13
14 -13 4 0 6 7 3 15 -7 16 32 36 54 28 6 -3 12 -1 12 5 0 5 14 15 30 22 17 7
30 15 31 19 0 3 2 14 4 24 2 12 -1 17 -10 13 -10 -3 -12 0 -8 12 5 14 3 15 -7
5 -11 -10 -18 -6 -38 23 -13 19 -38 44 -55 55 -18 10 -25 19 -17 19 13 0 13 2
0 11 -12 9 -12 10 3 5 10 -3 22 -6 25 -6 4 0 0 -5 -8 -10 -8 -5 -10 -10 -4
-10 5 0 20 9 33 21 22 20 25 39 6 42 -28 6 -52 44 -50 80 3 39 -1 43 -25 27z
m10 -20 c0 -5 -2 -10 -4 -10 -3 0 -8 5 -11 10 -3 6 -1 10 4 10 6 0 11 -4 11
-10z m38 -92 c3 -13 10 -17 21 -13 12 5 13 3 4 -5 -7 -8 -17 -9 -28 -2 -27 15
-57 3 -50 -19 4 -11 2 -19 -3 -19 -8 0 -9 21 -3 52 0 3 12 5 26 3 16 -1 24 2
22 9 -2 6 -14 10 -26 9 -20 -3 -28 7 -15 20 11 10 46 -13 52 -35z m67 -197 c3
-5 0 -13 -6 -17 -8 -4 -9 -3 -5 4 9 14 -4 15 -24 2 -11 -7 -11 -10 -2 -10 7 0
10 -5 6 -11 -5 -8 -10 -6 -16 5 -11 20 -29 21 -22 1 8 -20 2 -19 -18 5 -17 19
-16 19 11 16 16 -2 35 1 43 5 17 11 26 11 33 0z m-168 -210 c-10 -12 -9 -14 4
-9 9 3 22 3 28 -2 9 -5 4 -7 -13 -7 -15 0 -31 7 -36 16 -6 13 -4 17 10 17 15
0 17 -3 7 -15z"/>
<path d="M1033 2609 c-2 -17 1 -18 12 -9 8 7 12 16 9 21 -9 16 -20 10 -21 -12z"/>
<path d="M750 2605 c7 -9 15 -13 17 -11 7 7 -7 26 -19 26 -6 0 -6 -6 2 -15z"/>
<path d="M1121 2591 c-8 -5 -9 -11 -3 -15 5 -3 15 1 22 9 14 16 3 20 -19 6z"/>
<path d="M395 2579 c-4 -6 -13 -8 -20 -5 -18 6 -13 -57 5 -79 11 -14 2 -21
-15 -12 -9 4 -36 -43 -30 -53 9 -15 35 -12 41 5 5 12 9 13 20 4 8 -7 22 -12
32 -13 20 -2 62 -27 62 -38 0 -4 -6 -5 -13 -2 -8 3 -13 -4 -14 -17 -2 -17 1
-18 13 -9 8 7 14 9 14 5 0 -4 -10 -15 -22 -24 -12 -10 -18 -23 -14 -29 10 -17
26 -15 20 2 -3 8 0 17 6 21 7 4 9 -2 6 -20 -4 -20 -1 -25 9 -21 9 3 12 0 9 -9
-5 -12 -9 -12 -28 0 -13 8 -26 12 -31 8 -4 -5 -5 -3 -2 3 4 7 0 15 -9 18 -25
9 -26 8 -8 -19 9 -14 20 -22 26 -19 5 3 18 -2 29 -12 10 -9 20 -15 22 -13 26
44 27 50 12 55 -8 4 -15 11 -15 16 0 6 6 6 14 -2 12 -9 15 -8 13 9 -1 12 -6
20 -12 17 -6 -2 -11 4 -11 14 0 10 6 16 12 13 16 -6 22 -22 19 -51 -1 -16 2
-21 12 -17 8 3 17 5 19 5 2 0 4 5 4 11 0 5 -4 7 -10 4 -5 -3 -10 -1 -10 5 0 7
8 9 22 4 20 -6 21 -5 9 9 -7 9 -17 14 -22 11 -8 -5 -13 10 -10 30 1 5 -6 5
-16 2 -14 -6 -15 -4 -6 5 13 13 37 3 28 -12 -4 -5 -1 -9 4 -9 15 0 14 25 -2
38 -10 9 -19 7 -35 -4 -13 -9 -22 -11 -22 -5 0 6 4 11 9 11 15 0 61 46 54 53
-3 4 -1 7 5 7 7 0 11 -10 9 -21 -1 -12 3 -24 9 -26 7 -2 10 6 9 21 -3 26 15
39 40 30 8 -4 15 -1 15 5 0 11 -24 16 -45 11 -5 -2 -19 -4 -30 -5 -11 -1 -27
-14 -35 -28 -13 -21 -19 -24 -30 -14 -10 10 -12 9 -7 -5 4 -13 2 -15 -10 -11
-12 5 -14 3 -8 -8 5 -8 -3 -3 -18 10 -14 12 -30 20 -36 16 -6 -3 -20 0 -31 8
-19 13 -17 14 20 14 21 0 37 -4 34 -9 -10 -16 9 -8 22 10 18 23 17 37 -1 22
-9 -7 -18 -10 -22 -6 -3 3 -1 6 5 6 7 0 12 4 12 9 0 6 -9 9 -20 8 -11 -1 -19
-6 -16 -12 2 -6 -4 -11 -14 -11 -11 0 -16 6 -13 14 3 7 0 12 -8 10 -8 -2 -13
4 -13 15 1 9 -3 17 -10 17 -6 0 -3 5 7 11 9 5 21 7 26 4 6 -3 9 4 8 15 -1 22
-12 26 -22 9z m-33 -141 c-7 -7 -12 -8 -12 -2 0 14 12 26 19 19 2 -3 -1 -11
-7 -17z"/>
<path d="M831 2581 c-11 -7 -10 -10 4 -18 16 -9 16 -10 0 -16 -9 -4 -14 -10
-11 -15 2 -4 -5 -14 -16 -21 -20 -13 -20 -12 1 17 l21 30 -32 -3 c-40 -3 -68
-14 -68 -26 0 -5 -5 -9 -11 -9 -5 0 -7 4 -4 10 3 5 0 7 -8 4 -8 -3 -18 -1 -22
5 -10 17 -21 13 -22 -7 -1 -11 6 -18 18 -20 42 -4 48 -6 43 -14 -3 -4 0 -8 5
-8 6 0 11 -5 11 -10 0 -6 -11 -4 -23 5 -22 14 -26 14 -50 -5 -14 -11 -32 -18
-40 -14 -17 6 -28 -26 -17 -47 12 -21 6 -64 -8 -61 -7 1 -12 -5 -10 -15 2 -10
-11 -26 -32 -40 -19 -13 -36 -27 -37 -31 -2 -4 17 -7 42 -8 37 -1 43 2 33 13
-6 8 -20 11 -32 7 -13 -3 -8 3 12 15 18 12 38 32 44 46 11 25 28 34 28 15 0
-5 -4 -10 -10 -10 -5 0 -10 -5 -10 -11 0 -5 5 -7 10 -4 6 3 10 1 10 -5 0 -7
-6 -10 -14 -7 -10 4 -14 0 -13 -14 1 -21 17 -27 17 -6 0 6 5 4 11 -6 14 -23
-16 -61 -40 -51 -22 9 -73 9 -95 1 -12 -5 -26 -1 -38 9 -28 26 -35 8 -24 -59
2 -15 -1 -33 -7 -40 -7 -6 -14 -21 -15 -31 -3 -17 -1 -18 12 -7 8 7 18 22 21
32 5 16 10 18 20 9 11 -9 14 -7 12 9 -1 13 -6 20 -14 17 -7 -3 -13 -1 -13 5 0
6 8 9 18 7 9 -2 16 -10 14 -17 -2 -8 3 -11 12 -8 8 3 20 -1 27 -9 6 -8 20 -12
29 -9 9 3 23 -1 30 -10 13 -16 35 -21 26 -6 -3 5 1 14 9 21 19 16 19 30 0 30
-8 0 -14 -3 -14 -7 5 -28 -2 -33 -24 -18 -13 8 -26 13 -29 10 -3 -4 -22 5 -43
19 -21 14 -41 24 -45 21 -4 -3 -11 2 -14 11 -9 22 -7 31 3 16 9 -15 37 -18 66
-7 11 4 16 3 10 -2 -20 -16 -13 -30 14 -30 17 0 28 6 28 14 0 8 -7 11 -14 9
-8 -4 -11 -1 -8 5 4 6 14 7 24 3 9 -4 28 -6 43 -5 15 1 30 -4 33 -9 4 -7 -3
-9 -22 -5 -27 6 -27 6 -8 -10 11 -8 25 -13 32 -11 6 3 10 -1 7 -7 -2 -7 4 -13
16 -14 11 -1 20 2 20 8 0 5 -5 9 -12 9 -6 0 -8 3 -5 6 4 4 12 2 19 -4 10 -8
13 -2 14 26 l2 36 -18 -22 c-21 -26 -32 -29 -23 -7 3 9 2 15 -3 14 -29 -5 -35
1 -20 23 11 16 12 26 5 40 -6 11 -8 22 -5 26 3 3 6 0 6 -6 0 -7 4 -12 9 -12 6
0 9 9 8 20 -1 11 -6 19 -12 16 -6 -2 -11 4 -11 14 0 11 5 16 15 12 9 -3 12 -1
7 6 -9 15 14 26 27 13 9 -9 8 -11 -4 -6 -14 5 -16 0 -14 -32 1 -21 -2 -44 -7
-50 -14 -17 2 -16 25 1 18 14 24 32 7 21 -5 -3 -10 -1 -10 4 0 15 17 14 26 -1
4 -6 -1 -17 -12 -25 -59 -42 -67 -58 -33 -60 16 -2 19 1 11 9 -9 9 -2 18 24
36 33 22 34 25 20 45 -8 12 -19 21 -25 20 -6 -2 -11 2 -11 7 0 6 5 10 10 10
14 0 12 26 -3 38 -10 9 -19 7 -35 -4 -21 -15 -28 -10 -23 19 0 4 -4 7 -9 7 -6
0 -10 -6 -10 -12 0 -7 -5 -5 -11 5 -6 10 -8 21 -5 24 3 4 6 1 6 -6 0 -7 13 -2
31 13 33 28 44 31 54 16 3 -6 -1 -7 -10 -4 -9 4 -15 3 -14 -2 5 -27 -1 -36
-15 -24 -12 9 -15 8 -13 -9 2 -27 8 -26 41 4 31 28 38 31 30 12 -3 -8 2 -19
10 -26 14 -11 14 -15 0 -36 -15 -22 -14 -24 5 -22 17 1 19 6 15 32 -3 16 -7
46 -8 65 -2 19 -7 42 -11 51 -3 10 -2 20 4 24 6 3 9 0 6 -7 -3 -7 7 -18 22
-25 22 -11 29 -10 43 2 9 8 20 12 25 8 4 -5 5 0 2 9 -3 10 -2 20 3 23 9 6 10
45 0 45 -3 0 -11 -4 -19 -9z m-41 -52 c0 -5 -4 -9 -8 -9 -5 0 -9 7 -9 15 0 8
4 12 9 9 4 -3 8 -9 8 -15z m-140 -139 c0 -5 -4 -10 -10 -10 -5 0 -10 5 -10 10
0 6 5 10 10 10 6 0 10 -4 10 -10z"/>
<path d="M543 2511 c1 -16 7 -19 28 -17 14 2 31 6 37 10 7 4 21 2 32 -4 14 -8
25 -8 38 0 12 8 13 10 2 8 -8 -1 -26 4 -39 11 -20 11 -26 11 -39 -2 -13 -14
-17 -14 -38 -1 -21 15 -23 14 -21 -5z"/>
<path d="M510 2500 c-12 -8 -12 -10 4 -16 13 -5 15 -9 5 -15 -8 -4 -10 -11 -6
-15 10 -11 19 2 22 31 3 27 -2 30 -25 15z"/>
<path d="M259 2434 c-12 -27 -22 -53 -23 -59 -1 -5 -5 -15 -9 -22 -4 -6 -4
-19 0 -29 4 -10 2 -15 -4 -11 -5 3 -10 0 -11 -8 -1 -8 -3 -22 -4 -30 -1 -8 -6
-15 -12 -15 -6 0 -5 -4 3 -9 9 -6 10 -11 2 -15 -16 -10 -14 -26 3 -26 9 0 13
9 11 25 -2 24 -1 25 16 9 11 -9 19 -12 19 -6 0 6 -9 17 -21 25 -13 9 -16 17
-10 22 6 3 11 1 11 -4 0 -6 4 -11 9 -11 10 0 9 50 -2 68 -5 7 -3 12 3 12 7 0
9 7 6 16 -3 8 -2 13 2 10 5 -3 8 -38 7 -78 -1 -63 -3 -73 -18 -70 -10 2 -17
-1 -16 -5 4 -21 -3 -31 -18 -29 -12 0 -18 -6 -18 -19 -1 -11 -4 -25 -8 -31 -7
-13 19 -28 33 -19 11 7 20 -21 14 -42 -5 -15 -3 -15 12 2 12 15 15 16 11 4 -6
-17 9 -39 26 -39 5 0 4 7 -3 15 -7 9 -10 18 -6 22 3 3 6 1 6 -5 0 -7 4 -12 9
-12 6 0 9 9 8 20 -1 11 -6 19 -12 16 -6 -2 -11 4 -11 14 0 11 6 16 14 13 7 -3
12 0 10 8 -4 19 53 20 75 1 20 -18 24 -15 31 22 4 21 2 26 -9 22 -10 -3 -12 0
-8 12 6 14 4 15 -9 5 -12 -11 -17 -9 -28 12 -14 26 -30 33 -30 14 0 -14 47
-59 61 -59 5 0 9 -5 9 -11 0 -6 -8 -4 -20 4 -24 16 -80 13 -92 -6 -6 -8 -8 -6
-6 7 2 10 -2 21 -8 23 -7 2 -10 -11 -8 -38 2 -23 0 -38 -4 -34 -16 16 -8 78
12 99 18 18 21 32 20 95 -1 45 -6 76 -14 81 -9 5 -9 9 -1 14 6 4 8 13 4 19 -5
8 -2 8 9 -1 19 -15 38 3 34 33 -5 35 -25 27 -47 -21z m31 6 c0 -5 -5 -10 -11
-10 -5 0 -7 5 -4 10 3 6 8 10 11 10 2 0 4 -4 4 -10z m-81 -266 c4 3 7 -4 7
-14 0 -10 -3 -17 -7 -14 -4 2 -9 -2 -11 -8 -3 -7 -5 3 -5 22 0 19 2 29 5 22 2
-6 7 -10 11 -8z"/>
<path d="M313 2465 c0 -9 4 -14 9 -13 5 2 10 8 10 13 0 5 -5 11 -10 13 -5 1
-9 -4 -9 -13z"/>
<path d="M480 2461 c-13 -25 -13 -34 0 -26 16 10 32 45 21 45 -6 0 -15 -9 -21
-19z"/>
<path d="M986 2464 c-3 -7 -1 -16 4 -19 4 -3 10 1 13 7 2 7 4 -6 4 -30 0 -24
-3 -38 -7 -32 -5 8 -10 9 -14 2 -7 -12 10 -26 22 -18 16 10 41 -21 38 -47 -2
-17 1 -26 8 -24 6 2 10 11 10 20 -1 8 4 13 11 11 11 -5 13 9 6 49 0 4 -10 3
-20 -3 -15 -7 -22 -7 -28 2 -10 17 -12 88 -2 82 5 -2 5 -12 2 -22 -6 -15 -5
-15 11 -3 11 9 13 18 7 24 -15 15 -59 16 -65 1z m94 -98 c0 -3 -4 -8 -10 -11
-5 -3 -10 -1 -10 4 0 6 5 11 10 11 6 0 10 -2 10 -4z"/>
<path d="M710 2433 c0 -13 29 -38 35 -31 3 3 -4 13 -15 23 -11 10 -20 13 -20
8z"/>
<path d="M950 2429 c0 -4 7 -12 15 -19 18 -15 42 0 31 18 -7 12 -46 12 -46 1z"/>
<path d="M1039 2419 c-14 -28 1 -43 26 -25 11 8 16 19 12 30 -9 22 -24 20 -38
-5z m26 1 c3 -5 1 -10 -4 -10 -6 0 -11 5 -11 10 0 6 2 10 4 10 3 0 8 -4 11
-10z"/>
<path d="M300 2415 c-7 -8 -17 -12 -22 -9 -6 4 -7 -2 -2 -17 13 -41 11 -143
-3 -167 -18 -29 -10 -41 28 -40 17 1 26 4 21 7 -5 3 -14 16 -20 28 -9 17 -9
22 3 27 8 3 22 2 32 -1 11 -4 14 -3 9 5 -4 6 -2 21 4 32 13 24 2 27 -15 4 -8
-11 -16 -14 -26 -8 -19 12 -18 36 4 52 17 13 24 33 10 31 -34 -6 -40 32 -8 51
16 10 18 10 8 -1 -20 -20 -15 -45 7 -46 13 -1 18 2 13 10 -3 7 3 4 14 -6 11
-10 27 -15 37 -11 9 3 16 1 16 -6 0 -6 -4 -9 -9 -6 -5 3 -12 -1 -15 -10 -9
-23 -3 -26 20 -9 23 15 25 56 4 63 -7 3 -10 0 -7 -5 4 -6 -3 -10 -16 -9 -14 1
-21 7 -19 17 1 9 -6 19 -15 23 -10 3 -23 8 -29 11 -6 3 -17 -1 -24 -10z m50
-19 c0 -2 -7 -7 -16 -10 -8 -3 -12 -2 -9 4 6 10 25 14 25 6z m-60 -196 c0 -5
-2 -10 -4 -10 -3 0 -8 5 -11 10 -3 6 -1 10 4 10 6 0 11 -4 11 -10z"/>
<path d="M379 2428 c-10 -32 3 -66 14 -35 3 9 9 9 23 1 13 -8 18 -21 17 -43
-1 -27 1 -30 13 -20 11 9 12 15 3 25 -7 8 -7 14 -2 14 6 0 10 10 9 23 -1 16
-7 22 -23 22 -11 0 -25 3 -29 8 -7 7 -23 10 -25 5z"/>
<path d="M566 2412 c16 -13 19 -23 13 -35 -7 -12 -5 -15 10 -14 23 1 25 43 2
51 -9 3 -23 9 -31 12 -8 3 -5 -3 6 -14z"/>
<path d="M846 2411 c-3 -9 -9 -23 -12 -31 -3 -8 3 -5 14 6 13 16 23 19 35 13
12 -7 15 -5 14 10 -1 23 -43 25 -51 2z"/>
<path d="M332 2337 c-23 -25 -29 -57 -11 -57 6 0 9 6 6 13 -6 15 30 21 39 6 3
-5 0 -16 -6 -24 -6 -8 -9 -19 -6 -24 4 -5 2 -12 -4 -16 -14 -8 -1 -28 14 -22
21 8 44 -17 42 -47 0 -16 4 -31 11 -33 7 -3 10 5 9 21 -2 16 1 23 9 20 11 -5
13 9 6 49 0 4 -10 3 -20 -3 -14 -7 -22 -7 -26 1 -4 6 -14 8 -23 4 -14 -5 -14
-4 0 12 28 32 6 98 -30 86 -14 -4 -14 -3 -3 5 8 6 21 7 30 4 14 -5 14 -3 2 11
-17 21 -13 21 -39 -6z m108 -131 c0 -3 -4 -8 -10 -11 -5 -3 -10 -1 -10 4 0 6
5 11 10 11 6 0 10 -2 10 -4z"/>
<path d="M750 2352 c0 -4 4 -14 10 -22 8 -12 10 -12 16 4 5 13 9 15 15 5 4 -8
11 -10 15 -6 4 4 4 10 1 13 -9 9 -57 14 -57 6z"/>
<path d="M763 2306 c-27 -26 -29 -37 -5 -30 14 5 14 4 2 -4 -9 -7 -19 -7 -26
-2 -6 6 -14 7 -17 3 -15 -14 -6 -21 21 -17 15 3 36 6 46 8 11 1 22 8 24 16 3
7 0 10 -5 7 -5 -3 -15 -2 -22 2 -9 6 -10 11 -2 15 6 4 11 3 11 -1 0 -5 9 -9
20 -10 23 -2 18 12 -8 26 -12 6 -23 2 -39 -13z"/>
<path d="M393 2290 c-1 -11 4 -20 12 -20 8 0 17 -5 21 -12 5 -8 2 -9 -9 -5
-18 7 -32 -7 -22 -23 9 -14 45 6 45 25 0 8 -6 18 -14 22 -8 4 -15 12 -15 18 1
19 -17 15 -18 -5z"/>
<path d="M596 2301 c-3 -5 1 -14 9 -21 8 -7 12 -16 9 -21 -8 -13 10 -11 24 3
17 17 15 33 -3 18 -15 -12 -20 -4 -16 23 1 10 -17 9 -23 -2z"/>
<path d="M1030 2220 c0 -5 5 -10 11 -10 5 0 7 5 4 10 -3 6 -8 10 -11 10 -2 0
-4 -4 -4 -10z"/>
<path d="M598 2212 c11 -7 10 -11 -4 -16 -16 -6 -16 -8 -4 -16 22 -14 27 -12
26 12 0 12 -8 23 -16 25 -12 4 -12 3 -2 -5z"/>
<path d="M550 2190 c0 -5 5 -10 10 -10 6 0 10 5 10 10 0 6 -4 10 -10 10 -5 0
-10 -4 -10 -10z"/>
<path d="M859 2176 c7 -8 21 -18 32 -21 11 -4 17 -10 14 -15 -3 -5 -1 -11 4
-15 6 -3 8 -13 5 -23 -4 -12 -2 -12 7 3 7 11 21 29 31 39 20 22 25 44 6 28
-16 -12 -56 -11 -66 3 -4 6 -16 12 -26 13 -17 3 -18 1 -7 -12z m81 -30 c0 -3
-4 -8 -10 -11 -5 -3 -10 -1 -10 4 0 6 5 11 10 11 6 0 10 -2 10 -4z"/>
<path d="M501 2139 c-10 -17 -22 -26 -25 -21 -3 6 0 12 6 15 7 2 10 8 6 12
-11 12 -20 0 -24 -30 -2 -20 1 -25 12 -21 8 3 14 1 14 -5 0 -6 -8 -9 -17 -7
-10 2 -17 10 -15 17 2 8 -3 11 -12 8 -8 -3 -20 1 -27 9 -7 8 -19 12 -27 9 -8
-3 -21 0 -30 7 -8 7 -27 13 -42 14 -26 1 -26 1 -25 -62 1 -74 16 -98 43 -70
16 17 16 18 -5 11 -13 -3 -23 -2 -23 3 0 6 12 8 28 6 50 -8 87 -8 106 -1 12 5
26 1 38 -9 28 -26 35 -8 24 59 -2 15 1 33 7 40 13 13 21 47 12 47 -3 0 -14
-14 -24 -31z m-111 -34 c5 3 25 -6 45 -20 21 -13 41 -22 46 -19 5 3 9 3 9 0 0
-2 3 -13 6 -23 4 -13 3 -14 -3 -5 -11 15 -39 18 -68 7 -11 -4 -16 -3 -10 2 20
16 13 30 -14 30 -17 0 -28 -6 -28 -14 0 -8 7 -11 14 -9 8 4 11 1 8 -5 -4 -6
-14 -7 -24 -3 -9 4 -26 6 -38 5 -13 0 -23 4 -23 9 0 5 8 7 18 4 16 -5 16 -5 0
9 -21 17 -24 28 -5 21 8 -3 13 4 14 17 2 17 -1 18 -13 9 -9 -8 -14 -9 -14 -2
0 19 25 19 49 1 13 -10 27 -16 31 -14z"/>
<path d="M344 2088 c0 -12 8 -23 16 -25 12 -4 12 -3 2 5 -11 7 -10 11 4 16 16
6 16 8 4 16 -22 14 -27 12 -26 -12z"/>
<path d="M390 2090 c0 -5 5 -10 10 -10 6 0 10 5 10 10 0 6 -4 10 -10 10 -5 0
-10 -4 -10 -10z"/>
<path d="M534 2126 c2 -16 -1 -23 -9 -20 -11 5 -13 -9 -6 -49 0 -4 10 -3 20 3
14 7 22 7 26 -1 4 -6 14 -8 23 -4 14 5 14 4 0 -12 -18 -20 -18 -57 0 -75 16
-16 87 -26 100 -14 7 7 -18 36 -30 36 -6 0 -5 -7 2 -15 9 -10 9 -15 1 -15 -6
0 -11 4 -11 9 0 4 -12 8 -27 7 -23 -1 -28 3 -29 24 -1 14 5 32 13 42 14 16 3
35 -15 24 -15 -9 -39 20 -38 48 0 16 -4 31 -11 33 -7 3 -10 -5 -9 -21z m6 -46
c0 -5 -5 -10 -11 -10 -5 0 -7 5 -4 10 3 6 8 10 11 10 2 0 4 -4 4 -10z"/>
<path d="M179 2117 c-1 -1 -3 -38 -4 -83 l-2 -81 55 2 c39 1 59 6 66 17 8 14
12 13 27 -6 l18 -21 -2 23 c-1 12 -7 22 -13 22 -21 0 -44 30 -37 48 6 15 5 15
-10 3 -16 -13 -16 -15 -1 -32 11 -12 13 -19 5 -19 -7 0 -9 -4 -6 -10 3 -5 1
-10 -5 -10 -6 0 -9 8 -6 18 4 12 -3 27 -19 42 -14 13 -25 19 -25 13 0 -6 6
-16 14 -22 15 -13 18 -51 3 -51 -4 0 -7 8 -5 18 1 9 -1 23 -5 30 -10 14 -37
16 -37 2 0 -5 5 -9 12 -7 7 1 13 -8 14 -20 1 -13 -3 -23 -8 -23 -5 0 -6 10 -2
22 6 20 5 21 -8 10 -13 -10 -15 -9 -14 7 0 11 10 27 21 36 20 15 20 15 1 30
-17 13 -18 15 -3 15 24 0 21 17 -3 23 -11 3 -21 4 -21 4z m21 -57 c0 -5 -4
-10 -10 -10 -5 0 -10 5 -10 10 0 6 5 10 10 10 6 0 10 -4 10 -10z"/>
<path d="M641 2106 c-10 -12 -8 -16 8 -21 17 -5 19 -10 11 -26 -13 -24 -3 -42
19 -36 12 3 17 -3 19 -17 0 -11 -2 -16 -6 -10 -11 17 -39 23 -51 11 -17 -17
-13 -31 4 -17 13 10 19 9 36 -5 12 -11 17 -25 13 -34 -13 -32 -7 -91 11 -111
28 -31 38 -24 13 10 -17 24 -19 33 -9 43 10 10 11 8 5 -6 -3 -10 -3 -17 2 -16
27 5 36 -1 24 -15 -9 -12 -8 -15 9 -13 27 2 26 11 0 36 -12 11 -18 25 -14 31
4 6 -1 22 -10 36 -9 15 -14 37 -11 54 2 17 1 30 -3 30 -10 0 -36 49 -36 68 0
21 -19 26 -34 8z m49 -60 c0 -3 -4 -8 -10 -11 -5 -3 -10 -1 -10 4 0 6 5 11 10
11 6 0 10 -2 10 -4z m40 -120 c0 -2 -7 -6 -15 -10 -8 -3 -15 -1 -15 4 0 6 7
10 15 10 8 0 15 -2 15 -4z"/>
<path d="M721 2101 c-13 -23 -14 -31 -3 -30 19 3 33 -2 27 -11 -3 -5 -2 -10 4
-10 13 0 8 63 -6 67 -6 2 -16 -5 -22 -16z m24 -1 c3 -5 1 -10 -4 -10 -6 0 -11
5 -11 10 0 6 2 10 4 10 3 0 8 -4 11 -10z"/>
<path d="M230 2062 c0 -5 7 -15 15 -22 8 -7 15 -8 15 -2 0 5 -7 15 -15 22 -8
7 -15 8 -15 2z"/>
<path d="M980 2060 c0 -5 4 -10 10 -10 5 0 1 -13 -8 -30 -9 -16 -20 -30 -24
-30 -5 0 -8 -5 -8 -11 0 -5 5 -7 10 -4 6 3 10 1 10 -5 0 -7 -8 -9 -19 -5 -10
3 -23 -1 -31 -9 -10 -13 -7 -15 19 -11 18 2 29 0 26 -6 -4 -5 -1 -9 4 -9 6 0
11 -5 11 -11 0 -6 -9 -4 -22 5 -15 11 -26 12 -40 5 -10 -5 -23 -7 -28 -4 -5 3
-15 -3 -22 -15 -14 -22 -30 -28 -22 -7 3 8 -4 13 -17 14 -17 2 -18 -1 -9 -13
9 -10 9 -14 1 -14 -6 0 -11 6 -11 13 0 8 -4 7 -10 -3 -16 -24 -12 -26 35 -26
32 1 44 5 42 15 -1 8 4 16 11 18 8 3 11 -3 10 -18 -2 -12 2 -24 8 -26 7 -2 10
6 9 21 -4 31 22 42 47 20 27 -26 35 -10 25 56 -5 30 2 52 13 45 7 -5 8 15 1
58 -2 11 -21 9 -21 -3z"/>
<path d="M538 2049 c-10 -6 -18 -16 -18 -24 0 -23 -20 -28 -41 -9 -10 9 -20
15 -22 13 -26 -44 -27 -50 -12 -55 8 -4 15 -11 15 -16 0 -6 -6 -6 -14 2 -12 9
-15 8 -13 -9 1 -12 6 -20 12 -17 6 2 11 -4 11 -14 0 -10 -6 -16 -12 -13 -16 6
-22 22 -19 51 1 16 -2 21 -12 17 -8 -3 -17 -5 -19 -5 -2 0 -4 -5 -4 -11 0 -5
5 -7 10 -4 6 3 10 1 10 -5 0 -7 -8 -9 -22 -4 -20 6 -21 5 -9 -9 7 -9 17 -14
22 -11 8 5 13 -10 10 -30 -1 -5 6 -5 16 -2 14 6 15 4 6 -5 -13 -13 -37 -3 -28
12 4 5 1 9 -4 9 -15 0 -14 -25 2 -38 10 -9 19 -7 35 4 13 9 22 11 22 5 0 -6
-4 -11 -9 -11 -6 0 -22 -11 -36 -25 l-27 -24 27 -26 c34 -30 40 -31 42 -4 2
16 -1 18 -11 10 -16 -14 -29 10 -20 34 5 13 9 13 22 3 13 -11 15 -10 9 4 -4
13 -2 15 10 11 12 -5 14 -3 8 8 -5 8 2 5 14 -6 13 -11 33 -20 45 -20 11 0 21
-6 21 -14 0 -21 -21 -24 -39 -5 -9 9 -20 13 -24 9 -4 -4 4 -15 17 -26 22 -18
26 -18 47 -4 13 9 24 11 24 5 0 -5 -5 -10 -11 -10 -5 0 -8 -4 -5 -8 5 -8 -1
-10 -43 -14 -12 -2 -19 -9 -18 -20 2 -22 2 -22 34 -1 19 13 28 14 31 5 2 -6 7
-12 11 -12 7 0 11 25 11 72 0 15 4 29 9 32 5 4 8 -9 7 -29 -2 -22 1 -34 8 -32
6 2 11 18 12 36 2 37 -22 54 -40 29 -10 -14 -14 -14 -30 -2 -11 7 -23 11 -27
8 -5 -3 -20 3 -34 13 -26 19 -34 36 -12 27 8 -3 13 4 14 17 2 17 -1 18 -13 9
-8 -7 -14 -9 -14 -5 0 4 10 15 22 24 12 10 18 23 14 29 -10 17 -26 15 -20 -2
3 -8 0 -17 -6 -21 -7 -4 -9 2 -6 20 4 20 1 25 -9 21 -9 -3 -12 0 -9 9 5 12 9
12 28 0 13 -8 26 -12 31 -8 4 5 5 3 2 -3 -4 -7 0 -15 9 -18 25 -9 26 -8 8 19
-15 23 -15 25 0 19 9 -3 13 -10 10 -15 -3 -5 2 -12 11 -15 14 -6 14 -8 -3 -20
-21 -14 -23 -55 -2 -62 7 -3 10 0 7 5 -4 6 3 10 16 9 15 -1 21 -7 19 -19 -2
-10 3 -17 13 -17 8 0 18 0 22 -1 4 0 9 4 11 10 2 7 -4 9 -15 5 -14 -5 -15 -4
-3 4 8 6 18 8 22 6 4 -3 8 -1 8 4 0 6 -7 13 -16 16 -23 9 -26 8 -18 -6 4 -7
-2 -5 -13 5 -11 10 -27 15 -37 11 -9 -3 -16 -1 -16 6 0 6 5 8 10 5 6 -3 10 -1
10 6 0 8 6 6 18 -4 14 -13 21 -14 30 -5 9 9 12 9 12 -1 0 -7 4 -10 9 -7 17 11
22 -27 7 -49 -14 -21 -14 -24 0 -29 23 -9 24 -8 18 12 -5 14 -4 14 4 2 7 -9 7
-19 1 -26 -14 -17 21 -42 59 -39 19 1 38 8 42 16 11 17 110 22 104 4 -3 -6 5
-11 16 -12 18 -2 19 0 4 22 -9 13 -21 23 -27 21 -7 -1 -9 -1 -4 1 15 9 6 22
-13 20 -11 -1 -19 -6 -16 -12 2 -6 -4 -11 -14 -11 -11 0 -16 6 -13 14 3 7 0
12 -7 10 -24 -6 -20 19 10 57 28 35 29 40 15 61 -9 15 -11 24 -4 26 7 2 5 9
-4 17 -13 10 -16 10 -16 -6 -1 -36 -7 -62 -20 -77 -8 -9 -9 -16 -3 -16 17 0
33 27 26 46 -5 18 -5 18 6 1 9 -15 6 -24 -20 -53 -30 -34 -30 -37 -15 -60 15
-23 10 -30 -19 -25 -5 1 -6 -4 -3 -12 3 -9 -1 -14 -11 -13 -43 3 -71 42 -67
93 1 23 -3 32 -14 32 -62 1 -105 28 -94 58 3 7 -2 13 -10 13 -9 0 -19 5 -23
12 -5 8 -2 9 9 5 18 -7 34 10 21 23 -5 5 -17 4 -26 -1z m167 -237 c-3 -3 -11
0 -18 7 -9 10 -8 11 6 5 10 -3 15 -9 12 -12z"/>
<path d="M609 2038 c-4 -7 -4 -58 -1 -58 2 0 12 10 22 22 13 17 15 25 7 30
-12 8 -26 10 -28 6z"/>
<path d="M869 2020 c-1 -3 -2 -20 -4 -37 l-3 -33 28 20 c32 23 31 60 -1 57
-10 -1 -19 -4 -20 -7z m31 -22 c0 -4 -4 -8 -9 -8 -6 0 -12 4 -15 8 -3 5 1 9 9
9 8 0 15 -4 15 -9z"/>
<path d="M955 2020 c-4 -6 -14 -9 -22 -6 -10 4 -13 2 -10 -7 2 -7 -4 -23 -14
-36 -11 -13 -19 -19 -19 -15 0 5 -7 1 -14 -9 -13 -17 -14 -17 -20 0 -6 15 -8
15 -16 3 -6 -8 -10 -17 -10 -20 0 -10 39 -9 45 0 3 5 13 6 22 3 10 -4 14 -2
10 4 -4 6 10 27 30 47 20 20 34 39 31 42 -3 3 -9 0 -13 -6z"/>
<path d="M349 2016 c-6 -4 -5 -46 1 -46 15 0 19 14 7 29 -10 14 -10 14 4 3 9
-7 25 -10 35 -6 11 3 4 -3 -14 -15 -18 -11 -38 -32 -44 -46 -9 -20 -14 -22
-25 -13 -11 9 -18 8 -30 -5 -18 -18 -11 -49 10 -41 15 5 47 -20 47 -38 0 -6
-9 0 -19 13 -29 36 -39 16 -27 -54 2 -15 -1 -33 -7 -40 -13 -13 -21 -47 -12
-47 12 0 43 64 37 78 -3 10 -1 13 6 8 17 -10 15 3 -3 20 -8 9 -15 20 -15 26 0
6 9 -1 21 -15 14 -19 17 -31 11 -44 -5 -10 -7 -24 -4 -32 3 -8 0 -11 -7 -7 -6
4 -11 3 -11 -3 0 -16 18 -22 26 -9 14 22 17 73 11 158 -1 24 2 34 11 32 7 -1
12 5 10 15 -2 10 11 26 32 40 19 13 36 27 37 31 2 5 -81 13 -88 8z m-35 -112
c9 -3 16 -10 16 -15 0 -6 -8 -6 -19 0 -10 6 -22 7 -26 3 -5 -4 -5 -1 -1 6 8
14 9 14 30 6z"/>
<path d="M840 1980 c0 -5 5 -10 10 -10 6 0 10 5 10 10 0 6 -4 10 -10 10 -5 0
-10 -4 -10 -10z"/>
<path d="M294 1956 c-7 -7 -31 -12 -57 -11 -52 2 -57 -4 -50 -61 2 -21 5 -47
4 -56 0 -10 7 -18 15 -18 8 0 14 -5 14 -11 0 -5 -4 -8 -8 -5 -5 3 -9 -1 -9 -9
0 -8 5 -11 10 -8 6 4 8 0 4 -10 -3 -9 1 -33 10 -54 9 -21 18 -42 19 -48 6 -25
35 -84 44 -90 6 -4 8 -10 6 -14 -3 -4 4 -18 15 -29 11 -12 16 -22 12 -22 -4 0
1 -7 11 -15 11 -8 16 -15 12 -15 -5 0 -3 -7 4 -15 17 -21 50 -2 43 25 -6 23
-14 25 -33 8 -12 -11 -12 -10 -1 5 8 10 21 15 31 12 9 -3 23 1 29 9 7 8 19 12
27 9 9 -3 14 0 12 8 -2 7 5 15 15 17 9 2 17 -1 17 -7 0 -6 -6 -8 -13 -5 -8 3
-13 -4 -14 -17 -2 -16 1 -18 12 -9 10 9 15 7 20 -9 3 -10 13 -25 21 -32 13
-11 15 -10 12 7 -1 10 -8 25 -15 31 -6 7 -9 25 -7 40 11 67 4 85 -24 59 -12
-10 -26 -14 -38 -9 -23 9 -65 9 -88 0 -12 -5 -26 -1 -38 9 -10 10 -21 15 -24
12 -3 -3 7 -15 22 -27 21 -16 30 -18 46 -10 15 8 23 8 32 -1 8 -8 7 -10 -5 -5
-10 4 -16 1 -16 -8 0 -8 11 -14 28 -14 27 0 34 14 14 30 -6 5 -1 6 10 2 29
-11 57 -8 68 7 6 9 7 8 3 -5 -3 -10 -6 -21 -6 -23 0 -3 -4 -3 -9 0 -5 3 -25
-6 -46 -19 -20 -14 -40 -23 -45 -20 -4 2 -19 -4 -32 -15 l-25 -19 3 25 c2 19
-1 24 -12 20 -19 -7 -18 4 4 21 16 14 16 14 -1 9 -12 -4 -16 -2 -11 6 5 7 2 9
-9 5 -12 -4 -14 -2 -10 10 5 12 3 14 -8 8 -8 -4 -11 -4 -6 0 4 5 0 16 -9 26
-9 10 -14 25 -11 34 4 8 2 15 -2 15 -5 0 -12 8 -15 17 -6 15 -5 15 11 1 33
-28 42 -30 40 -8 -1 12 -7 18 -13 16 -7 -3 -18 2 -24 9 -7 8 -17 12 -23 8 -5
-3 -7 -1 -3 5 3 5 0 13 -6 15 -10 4 -10 6 0 6 7 1 10 6 7 11 -3 6 -1 10 5 10
6 0 10 -7 8 -16 -2 -10 2 -19 9 -21 7 -3 10 5 9 21 -2 16 1 23 9 20 11 -5 13
9 6 49 0 4 -10 3 -20 -3 -26 -13 -40 -13 -21 1 12 9 11 10 -8 6 -13 -3 -20 -1
-16 5 3 5 17 7 30 4 31 -8 46 21 20 39 -15 12 -15 15 10 45 20 23 29 28 35 18
4 -7 11 -9 15 -5 4 4 1 14 -7 21 -11 12 -16 12 -25 2z m-45 -27 c5 8 11 9 15
3 3 -5 -1 -12 -9 -16 -20 -7 -46 4 -39 16 4 6 10 5 15 -3 8 -12 10 -12 18 0z
m-35 -31 c-5 -8 -1 -9 12 -4 14 5 16 4 7 -5 -6 -6 -16 -8 -22 -5 -14 9 -14 26
0 26 5 0 7 -5 3 -12z m23 -30 c11 2 25 -2 29 -9 5 -9 2 -10 -10 -6 -10 4 -27
2 -39 -4 -12 -7 -19 -8 -15 -4 4 5 2 15 -5 23 -10 13 -9 14 3 7 8 -5 25 -8 37
-7z m43 -62 c0 -3 -4 -8 -10 -11 -5 -3 -10 -1 -10 4 0 6 5 11 10 11 6 0 10 -2
10 -4z m-30 -16 c0 -5 -4 -10 -10 -10 -5 0 -10 5 -10 10 0 6 5 10 10 10 6 0
10 -4 10 -10z m130 -310 c0 -5 -8 -10 -17 -10 -15 0 -16 2 -3 10 19 12 20 12
20 0z"/>
<path d="M512 1948 c-8 -8 -9 -15 -1 -25 7 -8 8 -13 2 -13 -6 0 -10 -10 -9
-22 1 -16 7 -23 21 -23 11 0 26 -4 33 -9 16 -10 25 -2 27 24 2 22 -11 27 -18
8 -3 -10 -9 -10 -23 -2 -13 8 -18 21 -17 43 2 35 1 35 -15 19z"/>
<path d="M1005 1915 c4 -30 -22 -41 -47 -19 -27 25 -32 15 -26 -53 2 -22 18
-33 18 -13 0 14 13 12 36 -5 16 -13 16 -14 1 -9 -13 5 -16 2 -11 -12 5 -18 5
-18 -6 -1 -9 14 -15 15 -33 6 -30 -15 -67 -50 -67 -62 0 -6 10 -1 23 10 12 11
28 18 35 16 7 -3 11 1 10 7 -2 7 4 15 12 17 9 3 11 1 5 -4 -16 -13 -16 -40 0
-41 8 -1 22 -3 30 -4 10 -1 12 -5 6 -11 -7 -7 -15 -6 -26 3 -8 7 -15 8 -15 2
0 -5 7 -15 16 -22 12 -11 18 -10 31 3 18 18 10 49 -11 41 -8 -3 -17 -1 -21 5
-3 6 0 9 7 6 8 -3 19 7 27 26 10 22 16 28 24 20 14 -14 37 -14 37 -1 0 6 -9
10 -19 10 -10 0 -21 7 -25 15 -3 8 -11 15 -18 15 -9 0 -9 -3 2 -11 12 -9 11
-10 -5 -4 -11 3 -24 7 -30 8 -12 2 -25 18 -25 32 0 6 3 6 8 -1 14 -21 41 -23
64 -4 13 11 19 19 15 20 -4 0 -3 8 2 18 7 14 6 18 -8 19 -13 1 -17 -5 -16 -22z"/>
<path d="M353 1894 c0 -12 7 -25 16 -28 9 -3 23 -9 31 -12 8 -3 5 3 -6 14 -16
13 -19 23 -13 35 7 12 5 15 -10 14 -12 -1 -18 -9 -18 -23z"/>
<path d="M740 1900 c0 -5 5 -10 10 -10 6 0 10 5 10 10 0 6 -4 10 -10 10 -5 0
-10 -4 -10 -10z"/>
<path d="M880 1860 c0 -5 7 -13 16 -18 9 -5 15 -13 14 -18 -1 -5 2 -10 7 -11
21 -7 9 33 -13 44 -13 6 -24 7 -24 3z"/>
<path d="M363 1823 c-1 -21 -4 -52 -7 -68 -4 -26 -2 -31 15 -32 19 -2 20 0 5
22 -13 19 -13 25 -2 34 15 13 16 73 1 78 -6 2 -11 -14 -12 -34z"/>
<path d="M470 1834 c-11 -12 -11 -18 2 -30 13 -13 15 -12 15 16 0 35 0 35 -17
14z"/>
<path d="M637 1833 c-12 -12 -7 -22 14 -28 15 -5 17 -10 9 -20 -8 -10 -5 -12
15 -12 l26 0 -28 31 c-15 17 -28 32 -29 33 0 2 -4 0 -7 -4z"/>
<path d="M430 1820 c0 -5 5 -10 10 -10 6 0 10 5 10 10 0 6 -4 10 -10 10 -5 0
-10 -4 -10 -10z"/>
<path d="M530 1820 c0 -5 5 -10 10 -10 6 0 10 5 10 10 0 6 -4 10 -10 10 -5 0
-10 -4 -10 -10z"/>
<path d="M782 1815 c4 -4 0 -13 -9 -20 -21 -16 -10 -44 17 -42 11 1 19 6 17
12 -2 5 -12 9 -22 7 -10 -2 -14 1 -10 7 3 6 13 11 21 11 19 0 13 22 -7 28 -8
3 -11 1 -7 -3z"/>
<path d="M815 1796 c0 -13 9 -34 20 -47 11 -12 14 -19 6 -14 -11 6 -13 4 -8
-8 4 -12 2 -14 -11 -10 -14 6 -15 4 -4 -9 18 -22 -9 -32 -35 -13 -10 8 -13 15
-7 15 5 0 15 -5 22 -12 8 -8 12 -8 12 -1 0 16 -28 36 -40 28 -15 -9 -12 -35 5
-41 12 -5 13 -9 3 -21 -10 -12 -9 -14 8 -11 21 3 64 43 64 59 0 5 5 9 10 9 6
0 3 -11 -5 -24 -15 -23 -15 -25 15 -46 16 -12 30 -17 30 -12 0 5 -10 16 -22
24 -12 8 -18 19 -14 26 9 15 26 16 26 1 0 -5 -4 -7 -10 -4 -5 3 -10 2 -10 -2
0 -12 41 -35 48 -27 4 4 1 9 -5 11 -7 3 -13 9 -13 15 0 7 5 6 14 -2 12 -9 15
-8 13 9 -1 12 -6 20 -13 17 -7 -3 -10 5 -8 20 1 16 -2 24 -9 21 -7 -2 -11 -13
-9 -23 3 -13 -5 -9 -25 15 -15 18 -29 39 -29 45 -1 6 -2 17 -3 24 -2 23 -17
12 -16 -12z"/>
<path d="M845 1796 c0 -32 11 -42 30 -26 17 14 21 35 5 25 -6 -3 -13 1 -16 9
-9 24 -20 19 -19 -8z"/>
<path d="M384 1779 c-10 -11 -12 -19 -6 -19 7 0 12 -7 12 -15 0 -8 5 -15 10
-15 6 0 10 -5 10 -11 0 -5 -4 -8 -9 -4 -11 6 -42 -35 -35 -47 9 -14 22 -9 20
8 0 9 5 19 12 21 6 3 12 0 12 -7 0 -6 -4 -8 -10 -5 -5 3 -10 1 -10 -4 0 -6 2
-11 4 -11 2 0 10 -2 18 -5 10 -4 13 7 14 40 0 38 -2 45 -15 40 -12 -5 -13 -3
-4 6 13 13 36 2 27 -13 -5 -7 -2 -9 7 -6 10 4 15 -1 15 -12 0 -10 -5 -16 -11
-14 -6 3 -11 -5 -12 -16 -2 -22 12 -27 21 -7 3 6 4 3 3 -7 -1 -10 3 -21 10
-23 8 -3 10 4 7 22 -3 18 -1 24 6 20 6 -4 9 -13 6 -21 -6 -17 10 -19 20 -2 4
6 -2 19 -14 29 -12 9 -22 20 -22 24 0 4 6 2 14 -5 12 -9 15 -8 13 9 -1 13 -6
20 -14 17 -7 -3 -13 -1 -13 3 0 12 31 25 50 22 8 -2 12 0 8 4 -10 10 -70 17
-64 7 2 -4 1 -13 -3 -20 -5 -9 -15 -6 -34 12 -25 23 -26 24 -43 5z"/>
<path d="M630 1785 c-7 -8 -18 -15 -26 -15 -7 0 -12 -9 -11 -20 1 -11 6 -18
12 -16 5 2 9 9 8 15 -2 6 2 11 7 11 14 0 13 -13 -2 -28 -9 -9 -9 -12 0 -12 6
0 16 8 21 18 6 9 11 12 11 5 0 -6 -4 -15 -10 -18 -5 -3 -10 -11 -10 -17 0 -7
5 -6 15 2 8 6 18 9 23 6 6 -3 15 1 22 9 10 12 10 18 0 30 -7 8 -16 13 -20 10
-5 -3 -16 -2 -25 1 -13 5 -14 9 -4 15 8 4 11 11 8 14 -4 3 -12 -1 -19 -10z
m50 -45 c0 -5 -4 -10 -10 -10 -5 0 -10 5 -10 10 0 6 5 10 10 10 6 0 10 -4 10
-10z"/>
<path d="M709 1780 c-4 -15 -5 -66 -2 -75 7 -20 38 -13 50 11 14 30 -3 73 -29
71 -10 -1 -19 -4 -19 -7z m28 -42 c0 -18 -2 -27 -5 -20 -2 6 -7 10 -11 8 -4
-3 -7 4 -7 14 0 10 4 16 8 14 4 -3 8 0 8 5 0 6 2 11 3 11 2 0 4 -15 4 -32z"/>
<path d="M912 1755 c2 -11 7 -23 11 -26 20 -14 16 -57 -8 -89 -30 -41 -30 -39
-5 -37 15 1 19 6 14 22 -4 12 6 4 25 -19 31 -39 36 -64 11 -58 -7 2 -10 -3 -7
-10 3 -8 -2 -14 -13 -14 -10 0 -16 5 -14 11 3 6 -5 11 -16 12 -22 2 -27 -12
-7 -21 6 -3 3 -4 -7 -3 -10 1 -21 -4 -24 -12 -2 -8 0 -11 5 -8 5 3 9 -10 10
-28 1 -35 -21 -55 -31 -29 -11 28 -41 11 -41 -21 0 -25 -4 -30 -23 -28 -14 2
-21 -1 -17 -7 4 -6 -1 -22 -9 -35 -20 -30 -3 -34 17 -5 8 11 21 18 28 15 14
-5 18 6 20 62 1 13 5 20 10 17 16 -10 6 -68 -18 -97 -18 -23 -21 -32 -13 -48
11 -20 5 -43 -10 -34 -14 9 -27 -19 -25 -53 1 -24 9 -38 29 -51 15 -10 23 -21
18 -25 -5 -3 -13 2 -16 11 -5 12 -10 13 -18 5 -6 -6 -17 -8 -24 -5 -8 3 -14 0
-14 -6 0 -9 20 -14 46 -10 4 0 10 -5 15 -12 4 -7 13 -14 21 -15 7 -2 31 -8 52
-13 41 -10 61 -6 51 10 -9 14 -27 11 -19 -3 4 -7 3 -10 -1 -5 -13 11 -13 46 0
41 6 -3 11 5 12 16 1 11 -2 20 -8 20 -5 0 -9 -5 -9 -12 0 -6 -3 -8 -6 -5 -4 4
-1 13 6 22 15 18 1 19 -22 1 -19 -14 -25 -32 -8 -21 6 3 10 1 10 -4 0 -15 -17
-14 -26 1 -4 7 2 18 14 26 12 8 22 19 22 24 0 5 -14 0 -30 -12 -30 -21 -30
-23 -15 -46 8 -13 12 -24 8 -25 -5 0 -16 -2 -26 -4 -9 -2 -15 1 -11 6 3 5 10
7 15 4 5 -4 9 -2 9 3 0 11 -46 62 -52 57 -2 -2 -4 11 -5 30 -1 30 1 32 14 20
11 -11 19 -12 34 -5 11 6 24 8 29 5 6 -3 10 -1 10 4 0 6 -5 11 -11 11 -6 0 -8
8 -4 19 3 10 -1 23 -9 31 -13 10 -15 7 -11 -18 2 -21 -2 -32 -12 -36 -9 -4
-18 -4 -21 -1 -3 3 -1 5 5 5 15 0 22 34 11 54 -8 14 -4 24 16 45 16 17 24 34
21 43 -4 9 -2 19 4 23 7 4 8 0 5 -10 -4 -9 -3 -15 2 -14 5 1 15 1 23 0 11 -1
11 -4 0 -18 -12 -15 -12 -16 3 -10 12 4 15 2 12 -8 -7 -17 30 -13 52 6 10 8
14 8 14 0 0 -6 -5 -11 -11 -11 -8 0 -7 -5 1 -15 10 -12 10 -19 2 -27 -7 -7
-12 -9 -12 -4 0 4 -7 1 -15 -7 -8 -9 -26 -14 -40 -13 -22 3 -24 0 -20 -22 2
-13 16 -41 29 -61 16 -23 24 -45 21 -61 -2 -13 0 -29 6 -36 12 -14 42 -7 33 7
-3 5 -10 7 -15 4 -5 -4 -9 -1 -9 4 0 6 6 11 14 11 10 0 13 9 11 30 -2 17 1 30
6 30 6 0 8 -4 5 -9 -7 -11 16 -31 44 -36 13 -3 20 0 17 8 -2 7 -12 12 -22 12
-10 0 -20 6 -22 13 -3 6 0 12 7 12 6 0 8 -4 5 -10 -3 -5 -1 -10 4 -10 6 0 11
6 11 13 0 6 5 4 11 -5 5 -10 15 -18 21 -18 9 0 9 3 0 12 -15 15 -16 28 -2 28
6 0 9 -5 8 -11 -2 -6 2 -13 7 -15 6 -2 11 4 12 15 2 21 -27 33 -47 21 -7 -5
-30 -7 -52 -5 -41 3 -43 2 -29 -24 6 -11 6 -22 -1 -32 -8 -11 -9 -11 -5 3 3 9
-2 27 -12 40 -10 13 -16 29 -14 36 3 7 -1 11 -8 10 -7 -2 -15 5 -17 15 -2 9 1
17 7 17 6 0 8 -6 5 -13 -3 -8 4 -13 17 -14 16 -2 18 1 10 11 -17 20 12 28 36
11 10 -8 13 -15 8 -15 -6 0 -16 5 -23 12 -8 8 -12 8 -12 1 0 -16 28 -36 39
-28 6 3 9 0 6 -7 -4 -9 2 -14 15 -15 19 -2 28 11 13 20 -5 2 -2 2 6 0 8 -2 11
2 8 12 -4 8 -2 17 3 20 6 4 10 12 10 18 -1 7 -9 2 -19 -10 -22 -27 -33 -30
-24 -8 3 9 2 15 -3 14 -29 -5 -35 1 -20 22 8 12 13 26 12 33 -2 6 -1 8 1 4 3
-5 9 -8 15 -8 6 0 4 8 -5 18 -10 10 -17 24 -17 31 0 8 -7 10 -19 6 -24 -7 -35
9 -22 32 6 10 11 14 11 10 0 -5 15 0 34 11 24 14 36 17 39 9 2 -7 8 -9 12 -4
5 4 6 10 2 13 -10 10 -69 15 -63 5 3 -5 -1 -12 -10 -15 -21 -8 -24 -8 -24 5 0
5 4 8 9 5 5 -3 12 1 15 10 9 24 7 28 -7 16 -10 -8 -16 -6 -25 9 -7 11 -8 19
-2 19 5 0 10 -4 10 -10 0 -5 5 -10 11 -10 5 0 7 5 4 10 -12 19 7 10 25 -12
l18 -22 0 27 c0 14 -3 26 -7 25 -27 -3 -31 3 -16 26 15 23 15 26 -15 60 -24
27 -29 39 -22 53 5 10 7 25 5 33 -3 9 1 7 11 -5 20 -25 21 -6 1 20 -48 63 -56
71 -53 50z m4 -254 c-3 -5 1 -11 9 -15 14 -5 15 -59 1 -73 -3 -4 1 -17 9 -30
9 -13 11 -23 5 -23 -5 0 -10 5 -10 10 0 6 -9 19 -20 30 -22 22 -17 58 5 40 9
-8 13 -4 13 15 0 18 -4 23 -12 16 -8 -6 -11 -2 -12 15 -1 13 2 24 8 24 5 0 7
-4 4 -9z m-31 -390 c-3 -6 -11 -11 -16 -11 -5 0 -4 6 3 14 14 16 24 13 13 -3z"/>
<path d="M905 1420 c3 -5 8 -10 11 -10 2 0 4 5 4 10 0 6 -5 10 -11 10 -5 0 -7
-4 -4 -10z"/>
<path d="M524 1727 c-25 -22 -25 -24 -8 -37 16 -13 17 -13 12 1 -3 9 -3 22 2
28 5 9 8 4 8 -12 0 -32 -72 -86 -81 -62 -7 18 -72 13 -95 -8 -15 -14 -19 -14
-41 4 -12 10 -28 16 -34 12 -6 -3 -7 -1 -3 5 4 7 2 12 -4 12 -6 0 -10 -8 -8
-17 2 -10 10 -17 17 -15 8 2 22 -4 31 -13 13 -12 23 -14 37 -7 10 5 33 9 51 7
25 -1 32 2 28 12 -3 8 -1 11 4 8 6 -3 10 -13 10 -21 0 -18 14 -18 30 1 18 21
29 19 40 -9 6 -16 16 -24 30 -23 11 1 19 6 17 12 -2 5 -12 9 -22 7 -10 -2 -14
1 -10 7 3 6 12 11 20 11 8 0 13 9 12 20 -1 11 -6 18 -12 16 -5 -2 -9 -8 -8
-14 1 -5 -4 -13 -13 -16 -12 -5 -12 -1 2 24 15 24 20 27 33 17 12 -10 14 -9 8
6 -4 10 -7 21 -7 23 0 3 -4 2 -10 -1 -5 -3 -10 -1 -10 5 0 7 7 9 16 6 9 -3 18
-6 20 -6 3 0 2 -5 -2 -12 -5 -7 -2 -9 8 -6 24 10 42 -6 24 -21 -12 -10 -13
-18 -5 -32 5 -11 7 -24 4 -29 -9 -14 9 -12 23 2 9 9 7 14 -5 23 -15 11 -15 14
4 38 13 17 23 23 30 16 6 -6 14 -5 22 4 9 12 7 15 -14 15 -14 0 -28 -5 -31
-10 -4 -5 -13 -3 -22 4 -10 8 -29 22 -44 31 -26 16 -28 16 -54 -6z"/>
<path d="M790 1738 c0 -15 18 -17 30 -3 9 11 8 14 -9 12 -12 -1 -21 -5 -21 -9z"/>
<path d="M1060 1735 c12 -15 4 -20 -22 -16 -5 0 -8 -4 -8 -10 0 -8 -4 -8 -14
0 -10 9 -16 8 -26 -4 -11 -13 -8 -14 19 -11 17 2 28 -1 25 -6 -3 -5 -12 -7
-20 -4 -12 5 -49 -33 -40 -41 7 -7 36 10 30 18 -3 5 0 9 6 9 7 0 9 -7 6 -16
-3 -9 -6 -18 -6 -20 0 -3 -4 -2 -10 1 -6 4 -8 -6 -6 -25 4 -35 12 -47 24 -35
4 4 2 10 -5 12 -9 3 -5 16 12 43 13 21 21 41 18 44 -4 3 4 17 16 30 22 24 22
46 -1 46 -7 0 -6 -6 2 -15z"/>
<path d="M303 1711 c1 -12 7 -21 14 -21 17 0 16 15 -1 30 -12 9 -15 8 -13 -9z"/>
<path d="M336 1705 c3 -7 -4 -19 -17 -25 -17 -10 -19 -14 -8 -21 17 -11 29
-11 28 -1 -3 19 2 33 10 28 5 -3 12 1 15 10 8 21 9 20 -13 21 -13 1 -18 -3
-15 -12z"/>
<path d="M590 1675 c-19 -23 -21 -62 -4 -76 7 -6 11 -15 8 -20 -3 -5 -1 -9 5
-9 15 0 23 18 11 25 -6 4 -8 11 -4 16 3 5 0 16 -6 24 -10 12 -10 18 0 30 7 9
11 18 8 20 -3 3 -11 -2 -18 -10z"/>
<path d="M679 1674 c-7 -8 -8 -18 -4 -22 4 -4 10 -1 12 6 3 6 9 12 14 12 6 0
8 -4 5 -9 -3 -5 2 -15 11 -22 14 -12 15 -11 9 9 -5 14 -3 22 4 22 6 0 8 -4 5
-10 -3 -5 -1 -10 4 -10 6 0 11 5 11 11 0 5 5 7 11 3 7 -4 10 -1 7 6 -6 18 -75
21 -89 4z"/>
<path d="M642 1668 c-15 -15 -16 -32 -2 -23 6 3 10 1 10 -5 0 -6 11 -16 25
-22 14 -6 25 -15 25 -20 0 -5 -11 -1 -24 7 -24 16 -25 15 -49 -20 -20 -29 -26
-33 -35 -22 -7 8 -9 16 -7 19 3 3 -10 5 -30 4 -19 0 -36 -3 -36 -6 -7 -28 -4
-50 6 -46 8 3 11 -4 9 -20 -1 -16 2 -24 9 -21 7 2 11 18 10 35 -2 32 21 52 31
27 3 -9 0 -12 -9 -9 -11 4 -13 -1 -9 -22 7 -38 11 -40 32 -20 12 10 26 14 36
10 14 -5 15 -9 4 -15 -10 -7 -10 -9 0 -9 6 0 12 -5 12 -11 0 -8 -4 -8 -14 1
-12 9 -15 8 -13 -9 1 -13 6 -20 14 -17 19 7 16 -4 -4 -21 -17 -14 -17 -14 0
-9 11 3 16 2 12 -4 -3 -6 -1 -10 4 -10 6 0 11 -5 11 -11 0 -6 -9 -4 -22 5 -16
11 -26 12 -41 5 -14 -8 -22 -8 -31 1 -8 8 -7 10 5 5 10 -4 16 -1 16 8 0 8 -11
14 -28 14 -27 0 -34 -14 -14 -30 6 -5 1 -6 -10 -2 -11 4 -24 7 -30 6 -47 -4
-59 -7 -62 -17 -4 -12 25 -12 44 -1 6 4 19 4 29 0 23 -9 65 -9 88 0 12 5 26 1
38 -9 29 -27 32 -18 24 79 -2 26 1 47 6 47 5 0 6 -4 3 -10 -8 -13 2 -13 18 0
7 6 23 19 37 30 22 18 23 20 5 18 -11 -2 -23 -6 -26 -11 -9 -13 -50 -17 -69
-7 -11 6 -24 4 -38 -6 -12 -8 -22 -11 -22 -5 0 5 9 13 20 16 11 4 27 20 36 36
8 17 20 29 26 27 16 -6 22 -28 8 -28 -6 0 -8 5 -5 10 3 6 2 10 -3 10 -5 0 -14
-11 -20 -25 -7 -15 -8 -25 -2 -25 6 0 10 5 10 10 0 6 5 10 11 10 8 0 8 -4 -1
-14 -9 -12 -8 -15 9 -13 12 1 20 6 17 13 -3 7 5 10 20 8 16 -1 24 2 21 9 -2 7
-13 10 -23 8 -13 -2 -9 6 16 27 30 26 41 30 82 27 38 -2 46 0 38 10 -15 19
-85 12 -111 -10 -12 -11 -19 -14 -14 -6 6 11 4 13 -8 8 -12 -4 -14 -2 -10 11
6 14 4 15 -9 4 -13 -10 -17 -10 -22 4 -3 9 -4 20 0 25 8 13 -10 11 -24 -3z
m-102 -108 c0 -5 -2 -10 -4 -10 -3 0 -8 5 -11 10 -3 6 -1 10 4 10 6 0 11 -4
11 -10z"/>
<path d="M343 1649 c-2 -17 1 -18 12 -9 8 7 12 16 9 21 -9 16 -20 10 -21 -12z"/>
<path d="M830 1664 c0 -6 7 -17 15 -24 8 -7 12 -16 10 -21 -3 -4 4 -7 15 -6
11 1 19 5 17 10 -1 5 -6 8 -10 7 -5 0 -17 9 -27 22 -11 13 -19 18 -20 12z"/>
<path d="M956 1654 c-7 -18 10 -44 27 -44 5 0 3 8 -5 18 -9 9 -13 23 -11 30 7
18 -4 15 -11 -4z"/>
<path d="M737 1599 c-14 -16 -14 -19 3 -34 10 -9 16 -23 13 -31 -3 -9 0 -14 8
-12 8 2 13 -4 13 -14 -2 -18 7 -23 19 -12 8 8 -8 41 -37 74 -11 14 -14 19 -6
13 18 -16 31 -17 28 -1 -3 12 36 19 58 11 7 -2 11 -16 9 -29 -1 -15 2 -23 9
-21 6 2 10 14 9 26 -3 21 11 29 21 13 8 -13 -23 -52 -39 -52 -9 0 -14 -9 -12
-22 2 -20 -3 -23 -33 -23 -27 0 -34 4 -32 17 2 12 -4 16 -23 14 -31 -4 -57
-25 -51 -42 3 -7 0 -11 -7 -8 -7 2 -13 -4 -14 -16 -1 -11 2 -20 8 -20 5 0 9 5
9 12 0 6 3 9 6 5 3 -3 2 -12 -2 -19 -18 -29 -14 -45 11 -43 26 3 42 -22 25
-39 -8 -8 -9 -6 -5 5 8 20 -24 31 -49 17 -13 -7 -23 -5 -36 7 -13 12 -23 14
-37 7 -10 -5 -33 -9 -51 -7 -19 1 -31 -2 -29 -9 5 -16 65 -16 78 0 9 11 15 10
36 -6 14 -11 30 -17 36 -13 6 3 7 1 3 -5 -4 -7 -2 -12 3 -12 6 0 11 7 11 15 0
8 5 15 10 15 7 0 7 -6 1 -18 -9 -16 -6 -19 20 -19 16 0 27 3 24 5 -3 3 2 16
10 29 9 13 13 28 10 33 -3 5 -1 11 5 15 11 7 4 25 -10 25 -5 0 -7 -14 -5 -32
4 -29 3 -30 -9 -12 -8 10 -19 20 -25 20 -6 1 -17 2 -23 3 -9 1 -9 4 2 11 9 5
19 5 27 -2 8 -6 16 -8 19 -5 3 3 -3 12 -15 19 -24 15 -28 30 -6 21 9 -3 15 -2
14 3 -5 29 1 35 22 20 12 -8 26 -13 33 -12 6 2 8 1 4 -1 -5 -3 -8 -9 -8 -15 0
-6 8 -4 18 5 10 10 23 17 29 17 6 0 14 6 17 13 3 6 4 3 3 -7 -1 -10 3 -21 10
-23 14 -5 9 35 -6 50 -5 5 0 18 13 31 16 18 30 23 59 21 39 -3 43 1 27 25 -12
19 -53 23 -46 4 7 -19 -4 -17 -19 3 -12 16 -23 19 -101 27 -31 2 -46 -1 -57
-15z m213 -19 c0 -5 -5 -10 -11 -10 -5 0 -7 5 -4 10 3 6 8 10 11 10 2 0 4 -4
4 -10z m-220 -91 c-7 -11 -14 -18 -17 -15 -3 3 0 12 7 21 18 21 23 19 10 -6z"/>
<path d="M1085 1576 c0 -52 8 -64 30 -46 12 10 13 15 3 21 -6 4 -12 20 -13 35
0 15 -5 29 -10 31 -6 2 -10 -15 -10 -41z"/>
<path d="M784 1571 c2 -23 29 -81 39 -81 5 0 6 8 3 18 -3 9 -2 23 3 31 5 7 6
21 4 31 -6 23 -51 24 -49 1z m28 -26 c-8 -16 -9 -16 -15 -1 -4 10 -3 15 3 11
6 -3 10 -1 10 6 0 7 3 10 6 6 3 -3 2 -13 -4 -22z"/>
<path d="M349 1578 c-1 -2 -3 -13 -4 -25 -2 -25 2 -28 25 -13 12 8 12 10 -4
16 -14 5 -15 9 -4 15 10 7 10 9 1 9 -7 0 -14 -1 -14 -2z"/>
<path d="M390 1550 c0 -5 5 -10 10 -10 6 0 10 5 10 10 0 6 -4 10 -10 10 -5 0
-10 -4 -10 -10z"/>
<path d="M432 1514 c1 -10 6 -22 11 -25 10 -7 18 -49 11 -60 -6 -11 -34 0 -34
13 0 6 6 6 14 -2 12 -9 15 -8 13 9 -1 12 -6 20 -13 17 -7 -3 -10 5 -8 20 1 16
-2 24 -9 21 -7 -2 -11 -11 -9 -20 1 -8 -7 -22 -19 -31 -20 -14 -21 -16 -5 -31
9 -10 24 -14 33 -11 12 5 13 4 4 -7 -8 -11 -7 -19 8 -35 10 -12 21 -19 25 -15
3 3 6 -2 6 -11 0 -12 5 -16 16 -12 8 3 13 2 10 -2 -8 -13 23 -45 38 -39 10 4
13 1 10 -7 -3 -8 5 -21 18 -30 29 -21 41 -20 29 1 -6 12 -5 20 7 29 9 7 13 18
9 28 -7 19 -28 17 -35 -2 -2 -8 3 -10 15 -6 16 5 16 4 -2 -11 -11 -9 -19 -21
-17 -26 1 -6 -3 -7 -9 -4 -7 5 -7 11 -1 17 6 6 8 16 6 23 -3 7 -1 16 5 20 13
8 14 25 2 25 -5 0 -13 -9 -16 -21 -6 -17 -9 -18 -23 -7 -13 11 -15 10 -9 -5 4
-11 3 -16 -4 -12 -6 4 -8 14 -5 22 4 10 -1 17 -15 20 -15 4 -17 8 -8 14 8 5
18 0 27 -12 7 -10 18 -19 24 -19 6 0 4 8 -5 18 -10 10 -17 24 -17 30 0 15 -16
16 -25 2 -6 -10 -40 -9 -51 3 -10 10 17 39 32 33 7 -3 16 -1 20 5 3 5 15 7 27
4 12 -2 16 -2 9 1 -9 4 -5 12 13 26 14 10 29 17 34 14 5 -4 22 5 38 19 15 13
23 25 17 25 -6 0 -17 -7 -24 -15 -7 -9 -21 -13 -30 -10 -9 3 -23 -1 -29 -9 -7
-8 -19 -12 -27 -9 -9 3 -14 0 -12 -8 2 -7 -5 -15 -14 -17 -10 -2 -18 1 -18 7
0 6 6 8 14 5 11 -4 14 1 12 21 -4 29 -13 42 -23 31 -4 -4 -1 -11 6 -15 8 -6 9
-11 3 -15 -6 -3 -13 2 -17 13 -3 11 -13 25 -21 32 -13 11 -15 10 -12 -7z m-22
-64 c0 -5 -5 -10 -11 -10 -5 0 -7 5 -4 10 3 6 8 10 11 10 2 0 4 -4 4 -10z"/>
<path d="M1050 1500 c0 -5 5 -10 10 -10 6 0 10 5 10 10 0 6 -4 10 -10 10 -5 0
-10 -4 -10 -10z"/>
<path d="M590 1460 c-12 -8 -12 -10 4 -16 14 -5 15 -9 4 -16 -10 -8 -10 -9 2
-5 8 2 16 13 16 25 1 24 -4 26 -26 12z"/>
<path d="M743 1449 c-1 -16 1 -18 11 -10 10 8 16 4 26 -14 14 -26 30 -33 30
-15 0 12 -48 60 -59 60 -4 0 -7 -9 -8 -21z"/>
<path d="M550 1450 c0 -5 5 -10 10 -10 6 0 10 5 10 10 0 6 -4 10 -10 10 -5 0
-10 -4 -10 -10z"/>
<path d="M1114 1408 c-3 -4 -2 -13 2 -20 4 -7 3 -8 -4 -4 -7 4 -20 2 -29 -4
-15 -9 -15 -11 -2 -7 9 3 21 1 27 -5 8 -8 13 -7 18 5 3 9 11 17 16 17 6 0 4
-7 -3 -17 -12 -14 -12 -16 1 -11 23 7 21 54 -2 54 -11 0 -22 -4 -24 -8z"/>
<path d="M880 1380 c0 -6 -11 -20 -25 -32 -14 -12 -25 -26 -25 -31 0 -6 3 -7
7 -4 3 4 13 1 21 -6 20 -16 75 -18 68 -2 -3 8 4 11 20 9 16 -1 24 2 21 9 -2 7
-17 11 -33 11 -30 -2 -55 21 -47 43 3 7 2 13 -1 13 -3 0 -6 -5 -6 -10z m6 -42
c5 -7 3 -8 -6 -3 -10 6 -12 4 -7 -8 4 -11 2 -14 -9 -10 -11 4 -12 9 -3 19 14
17 16 17 25 2z m24 -22 c0 -3 -4 -8 -10 -11 -5 -3 -10 -1 -10 4 0 6 5 11 10
11 6 0 10 -2 10 -4z"/>
<path d="M602 1357 c-15 -18 7 -69 26 -62 7 3 10 0 7 -5 -4 -6 -14 -9 -23 -8
-23 4 -27 -58 -5 -67 14 -5 14 -3 2 12 -10 12 -10 15 -1 9 14 -8 42 10 42 26
0 6 -7 5 -15 -2 -11 -9 -19 -10 -26 -3 -6 6 -4 10 6 11 53 6 50 4 35 32 -8 16
-8 18 5 14 8 -3 13 -10 10 -14 -2 -4 7 -7 20 -7 14 0 25 1 25 3 0 2 -19 16
-42 30 -24 15 -46 31 -49 36 -3 5 -11 3 -17 -5z m31 -32 c-3 -9 -8 -14 -10
-11 -3 3 -2 9 2 15 9 16 15 13 8 -4z"/>
<path d="M772 1330 c-27 -23 -30 -29 -17 -34 21 -8 25 -8 24 2 -3 19 2 33 10
28 8 -5 26 23 19 29 -2 2 -18 -9 -36 -25z"/>
<path d="M1110 1350 c-8 -5 -13 -10 -10 -11 3 0 16 -2 29 -5 20 -4 22 -2 11
11 -7 8 -13 15 -14 15 0 0 -8 -5 -16 -10z"/>
<path d="M1013 1323 c-13 -14 -23 -29 -23 -33 0 -4 10 -6 23 -5 12 1 22 3 22
4 0 1 13 4 28 6 l28 4 -22 -18 c-27 -22 -32 -57 -9 -58 12 -1 16 5 14 23 -1
13 3 25 9 26 7 0 17 2 22 2 6 1 16 5 23 9 11 7 17 -3 13 -25 -2 -16 18 -7 32
12 14 20 14 20 36 1 22 -19 22 -20 3 -18 -12 0 -18 5 -16 9 3 4 1 8 -5 8 -16
0 -22 -17 -8 -28 6 -5 22 -8 34 -7 17 1 20 -2 13 -10 -8 -9 -4 -12 15 -12 20
0 23 2 15 12 -8 10 -6 15 9 20 27 8 27 20 1 22 -11 1 -18 -2 -15 -8 4 -5 1 -9
-5 -9 -7 0 -10 6 -7 13 2 6 12 11 21 11 9 -1 15 3 13 10 -5 13 -39 9 -50 -7
-5 -8 -7 -4 -5 8 2 15 -2 19 -17 17 -58 -8 -101 -8 -113 1 -7 5 -15 7 -19 4
-3 -4 -12 -2 -19 4 -10 9 -15 7 -20 -5 -3 -9 -11 -13 -16 -10 -5 4 2 14 16 23
14 10 23 21 19 24 -10 11 -16 8 -40 -20z"/>
<path d="M710 1310 c0 -5 5 -10 10 -10 6 0 10 5 10 10 0 6 -4 10 -10 10 -5 0
-10 -4 -10 -10z"/>
<path d="M781 1303 c5 -28 -2 -33 -24 -18 -22 14 -26 14 -50 -6 -24 -18 -26
-19 -21 -2 5 17 2 14 -46 -44 -16 -20 -12 -30 23 -50 39 -23 83 -17 80 13 -1
10 0 13 3 7 9 -20 23 -15 21 7 -1 11 -6 19 -13 16 -7 -3 -10 5 -8 20 1 16 -2
24 -9 21 -7 -2 -11 -12 -9 -22 3 -14 1 -15 -12 -4 -13 12 -13 15 2 27 18 14
38 10 35 -7 -4 -16 12 -14 27 4 7 8 17 12 23 8 7 -4 8 0 4 11 -4 10 -7 20 -7
22 0 2 -4 4 -10 4 -5 0 -9 -3 -9 -7z m-87 -59 c14 -5 14 -8 1 -27 -11 -16 -12
-24 -2 -35 10 -13 9 -13 -9 -2 -19 12 -20 16 -8 27 16 17 18 33 4 33 -5 0 -10
-7 -10 -17 0 -9 -3 -14 -6 -10 -7 6 2 37 10 37 2 0 11 -3 20 -6z m36 -35 c0
-5 -4 -7 -10 -4 -5 3 -10 2 -10 -4 0 -5 6 -12 13 -14 9 -4 9 -6 0 -6 -15 -1
-26 16 -18 29 8 13 25 13 25 -1z"/>
<path d="M1299 1298 c-8 -16 -3 -67 8 -79 11 -14 11 -18 -1 -28 -10 -9 -15 -8
-19 3 -4 9 -16 12 -37 10 -19 -2 -33 1 -36 9 -2 7 -14 13 -24 14 -11 1 -18 -2
-15 -8 10 -15 58 -35 82 -33 12 0 20 -2 17 -7 -2 -4 -10 -6 -17 -3 -8 3 -13
-4 -13 -16 0 -25 12 -26 26 0 6 10 16 17 24 14 20 -8 39 21 28 43 -5 10 -9 33
-7 51 1 17 -2 32 -7 32 -4 0 -9 -1 -9 -2z"/>
<path d="M1089 1251 c-1 -9 0 -20 1 -26 10 -40 6 -55 -18 -72 -15 -9 -31 -16
-35 -15 -5 1 -7 -3 -5 -10 3 -7 13 -13 24 -13 10 0 18 -6 17 -12 -3 -15 13
-17 22 -4 3 5 -5 17 -17 26 l-23 17 23 -7 c12 -4 22 -3 21 2 -4 22 2 34 13 27
29 -18 89 -19 99 -2 5 7 9 9 9 3 0 -21 -16 -32 -43 -29 -24 2 -27 0 -16 -12 7
-8 20 -12 30 -9 11 4 19 2 19 -4 0 -6 5 -11 11 -11 5 0 7 4 4 10 -3 5 -1 18 5
29 11 22 -5 45 -40 56 -20 6 -24 16 -21 44 3 20 -17 3 -34 -30 -16 -30 -3 -42
13 -13 6 11 11 13 16 5 4 -6 1 -11 -6 -11 -9 0 -9 -3 2 -10 20 -13 33 -12 24
2 -4 7 -3 8 5 4 17 -11 2 -29 -18 -21 -9 4 -25 8 -36 9 -13 1 -20 9 -21 23 -1
12 3 20 7 17 5 -3 9 0 9 5 0 6 -7 11 -15 11 -8 0 -15 5 -15 10 0 7 6 7 19 0
16 -8 20 -7 18 9 -1 24 -46 26 -48 2z"/>
<path d="M1385 1260 c-3 -5 -1 -10 4 -10 6 0 11 5 11 10 0 6 -2 10 -4 10 -3 0
-8 -4 -11 -10z"/>
<path d="M940 1225 c-9 -11 -8 -14 9 -12 22 1 28 12 12 21 -5 3 -14 -1 -21 -9z"/>
<path d="M1270 1233 c0 -13 29 -38 35 -31 3 3 -4 13 -15 23 -11 10 -20 13 -20
8z"/>
<path d="M1385 1227 c-6 -15 -10 -16 -16 -5 -6 9 -9 9 -9 1 0 -17 20 -27 32
-15 6 6 8 16 5 24 -3 9 -7 8 -12 -5z"/>
<path d="M850 1218 c0 -6 -7 -20 -17 -30 -9 -10 -11 -18 -5 -18 6 0 18 10 27
23 8 12 19 21 22 19 4 -2 9 0 10 5 2 5 -6 9 -17 10 -11 1 -20 -3 -20 -9z"/>
<path d="M803 1205 c2 -5 10 -10 17 -10 7 0 15 5 17 10 2 6 -6 11 -17 11 -11
0 -19 -5 -17 -11z"/>
<path d="M730 1164 c-25 -14 -24 -14 12 -11 21 1 37 6 35 11 -5 15 -20 15 -47
0z"/>
<path d="M983 1133 c0 -21 25 -53 41 -53 6 1 1 9 -11 19 -20 17 -21 20 -6 26
15 5 15 7 3 15 -21 14 -27 12 -27 -7z"/>
<path d="M1103 1129 c-2 -16 2 -17 18 -9 19 10 25 3 20 -24 -1 -5 4 -6 12 -3
8 3 14 -3 15 -16 1 -16 -1 -18 -7 -8 -6 9 -11 10 -15 3 -8 -13 -36 -4 -36 10
0 6 6 6 14 -2 12 -9 15 -8 13 9 -1 12 -6 21 -13 21 -17 0 -37 -27 -29 -39 3
-7 0 -8 -9 -5 -15 6 -20 18 -17 38 1 5 -5 6 -13 3 -9 -4 -18 -2 -21 3 -4 6
-12 10 -18 10 -7 -1 -2 -9 11 -19 21 -19 31 -38 13 -26 -5 3 -13 0 -17 -6 -5
-8 1 -10 20 -7 14 3 26 2 26 -1 0 -4 34 -7 75 -7 41 0 75 4 75 9 0 5 -7 7 -15
4 -19 -8 -30 12 -16 26 9 9 11 8 5 -6 -5 -13 -2 -16 10 -11 9 4 18 0 22 -9 3
-9 12 -13 21 -10 14 6 14 8 -1 18 -15 11 -15 13 -1 19 9 3 14 10 10 15 -3 5 4
12 15 16 11 4 18 10 15 15 -8 12 -56 -13 -50 -27 6 -17 -13 -27 -29 -14 -7 6
-16 8 -19 4 -9 -8 -48 27 -42 37 3 4 -6 8 -18 8 -15 0 -23 -7 -24 -19z"/>
<path d="M970 1090 c-8 -5 -18 -6 -22 -4 -4 3 -8 0 -8 -6 0 -6 10 -10 23 -9
12 2 28 0 35 -4 16 -11 16 7 -1 21 -8 7 -18 7 -27 2z"/>
<path d="M1350 1079 c0 -5 5 -7 10 -4 6 3 10 8 10 11 0 2 -4 4 -10 4 -5 0 -10
-5 -10 -11z"/>
</g>
</svg>
